<svg width="1200" height="760" viewBox="0 0 1200 760" fill="none" xmlns="http://www.w3.org/2000/svg">
<defs><linearGradient id="bg" x1="0" y1="0" x2="1200" y2="760"><stop stop-color="#061426"/><stop offset="1" stop-color="#14345c"/></linearGradient><linearGradient id="g" x1="0" y1="0" x2="1" y2="1"><stop stop-color="#ff7a00"/><stop offset="1" stop-color="#ff7a00"/></linearGradient><filter id="b"><feGaussianBlur stdDeviation="45"/></filter></defs>
<rect width="1200" height="760" fill="url(#bg)"/><circle cx="960" cy="150" r="230" fill="#ff7a00" opacity=".22" filter="url(#b)"/>
<path d="M145 495C355 430 620 430 1040 520" stroke="white" stroke-opacity=".28" stroke-width="10" stroke-linecap="round"/>
<rect x="140" y="300" width="850" height="190" rx="52" fill="#e9eef6"/><rect x="140" y="300" width="850" height="58" fill="#10325e"/>
<rect x="205" y="385" width="110" height="58" rx="14" fill="#071426"/><rect x="345" y="385" width="110" height="58" rx="14" fill="#071426"/><rect x="485" y="385" width="110" height="58" rx="14" fill="#071426"/><rect x="625" y="385" width="110" height="58" rx="14" fill="#071426"/><rect x="205" y="462" width="700" height="34" rx="17" fill="url(#g)"/>
<text x="82" y="115" fill="white" font-family="Arial" font-size="58" font-weight="700">QAZAQ OIL</text><text x="86" y="178" fill="#aab8cf" font-family="Arial" font-size="30">Case image placeholder</text>
</svg>