<svg width="120" height="74" viewBox="0 0 120 74" fill="none" xmlns="http://www.w3.org/2000/svg">
<mask id="path-1-inside-1_108_21" fill="white">
<path d="M89.731 61.7603C89.7421 61.8937 89.6691 62.0478 89.5434 62.0759C89.4914 62.0874 89.449 62.0239 89.4044 62.0662C89.3521 62.1163 89.3339 62.2299 89.2737 62.132C89.2436 62.0832 89.2412 61.954 89.2317 61.8923C89.2156 61.7842 89.1801 61.7778 89.2593 61.69C89.3022 61.6417 89.362 61.5777 89.3921 61.5179C89.4242 61.4535 89.4395 61.2342 89.4972 61.219L89.5454 61.2075C89.5669 61.2135 89.5792 61.2544 89.5961 61.2544C89.6159 61.2544 89.625 61.2121 89.632 61.2098C89.632 61.104 89.7231 61.0433 89.7479 61.1909C89.7705 61.328 89.6955 61.4168 89.672 61.5368C89.6551 61.6214 89.7244 61.6831 89.731 61.7603ZM49.4943 51.532C48.6017 51.532 47.8773 50.7244 47.8773 49.7281C47.8773 48.7319 48.6017 47.9242 49.4943 47.9242C50.3873 47.9242 51.1113 48.7319 51.1113 49.7281C51.1113 50.7244 50.3873 51.532 49.4943 51.532ZM43.8817 46.4464C43.6739 46.767 43.4051 46.6782 43.4352 47.157C43.4501 47.3907 43.4851 47.7209 43.2963 47.8488L43.2163 47.9569L42.6226 48.2581C42.2643 48.4398 42.2894 48.6675 41.9736 48.5497C41.9736 48.2839 42.1987 48.2632 42.0582 47.9146C42.014 47.806 41.8528 47.3171 41.7885 47.3686C41.0526 47.9619 41.1672 47.1161 40.6473 47.157C40.2197 47.1906 40.2453 47.5213 39.8342 47.1897C39.5551 46.9648 39.659 46.2565 39.9691 46.1309C40.0915 46.0817 40.4848 45.7326 40.4956 45.7312C40.6197 45.7151 40.6448 45.9078 40.7231 45.9805C40.7924 46.1254 40.8283 46.3365 40.8283 46.503C40.8283 46.8935 40.966 46.6856 41.0093 46.4322C41.027 46.33 40.994 46.1323 41.102 46.2394C41.1433 46.2804 41.3065 46.5021 41.3671 46.451C41.4141 46.4901 41.5836 46.3388 41.6285 46.3052C41.6665 46.2772 41.8347 46.1796 41.8347 46.1594C42.0037 46.112 41.8013 45.9014 41.7337 45.8627C41.6492 45.814 41.5069 45.751 41.443 45.6792C41.1932 45.3982 41.2917 45.3812 41.5947 45.4014C41.7312 45.4106 41.9205 45.4893 42.0582 45.5242C42.1377 45.544 41.9947 46.1658 42.0413 46.3521C42.1348 46.7284 42.3538 46.7606 42.6395 46.8792C42.8316 46.796 43.4991 47.0006 43.3721 46.5734C43.3045 46.3457 43.7209 45.7924 43.8735 45.9193C43.9287 45.8729 44.1159 45.842 44.1724 45.8627C44.1724 46.0743 43.9897 46.2795 43.8817 46.4464ZM41.262 49.2277C41.2348 49.2576 41.0435 49.4236 41.0559 49.2746C41.0608 49.2135 41.0654 48.8712 40.959 48.931C40.9528 48.9108 40.8394 48.9577 40.8242 48.9596L40.2008 49.0207C40.1237 49.0281 39.8738 49.0598 39.8932 49.1803C39.9588 49.5878 40.3174 48.9973 40.4914 49.3501C40.6543 49.6812 41.2756 49.2732 41.0893 49.6513C40.9091 50.0165 39.6813 49.3662 39.3964 49.2369C39.1993 49.1477 38.8505 49.3694 38.874 48.9968C38.8921 48.7121 38.9544 48.5111 38.7264 48.3193L38.5623 48.1215C38.4786 48.0199 38.4197 47.887 38.3644 47.7642C38.2671 47.5475 38.3306 47.5153 38.4823 47.623C38.7013 47.7784 38.9408 47.3313 39.1185 47.8814C39.1803 48.0737 39.2467 48.3943 39.0591 48.4982C38.9482 48.5599 38.9565 48.9375 39.055 48.9122C39.2418 48.8648 39.4471 48.7107 39.6532 48.6532C39.9901 48.5599 40.3962 48.7116 40.7396 48.6206C41.0056 48.5502 41.0905 48.7898 41.2789 48.7898C41.3919 48.7898 41.6368 48.8013 41.7296 48.8653C41.8805 48.9688 41.3082 49.1762 41.262 49.2277ZM57.6062 65.4818L57.5992 65.7835L57.33 65.7172L57.3634 67.6187L58.9301 67.8542L59.4356 71.1009L61.3309 71.1764L62.3587 70.8562C62.4527 70.9004 62.5987 71.0586 62.6914 71.0586C62.7929 71.0586 63.119 70.9229 63.1714 71.0397C63.2056 71.117 63.0988 71.4822 63.1841 71.5057C63.2056 71.4335 63.5548 71.2886 63.5548 71.4445C63.5548 71.5517 63.4311 71.5857 63.4492 71.7458C63.4851 72.0544 63.4727 72.0438 63.2893 72.2494C63.2369 72.3078 62.9541 72.4394 63.1375 72.513C63.6443 72.7163 63.9597 73.1449 64.4478 73.4163C64.6099 73.4747 64.6672 73.5483 64.8519 73.5483C64.8539 73.5543 64.9203 73.5856 64.9319 73.5856C64.9389 73.6095 65.0807 73.552 65.1005 73.5386C65.3598 73.3611 64.9817 73.0704 64.9405 72.8892C64.9079 72.7471 65.0003 72.6997 64.9277 72.5176C64.87 72.3731 64.8816 72.2788 64.8816 72.1271C64.729 72.0714 64.6136 71.6828 64.7888 71.5622C64.9117 71.4776 65.0646 71.8097 65.0877 71.887C65.0992 71.887 65.1195 71.892 65.1256 71.887C65.1339 71.8939 65.3512 71.8258 65.3742 71.8115C65.5388 71.7099 65.2609 71.5576 65.4163 71.3691C65.5144 71.2504 65.7956 71.0195 65.9218 70.9317C65.9172 70.8558 66.1704 70.6975 66.1704 70.428C66.1704 70.3917 66.2858 70.3655 66.3093 70.2868C66.3819 70.0421 66.3374 70.0683 66.5703 69.9952C66.6965 69.9557 66.6384 69.762 66.8441 69.7174C67.1117 69.6594 67.3887 69.9129 67.4885 69.4916C67.5582 69.1977 67.7227 69.3711 67.813 69.1057C67.895 68.8633 68.3069 68.5919 68.5159 68.5363C68.6541 68.4995 68.7749 68.6379 68.9245 68.574C69.0321 68.5284 69.0833 68.2796 69.2449 68.2539C69.301 68.2083 69.3991 68.0584 69.451 68.0423C69.658 67.9774 69.5768 67.9843 69.6786 67.8022C69.7693 67.6398 69.8151 67.6223 69.9482 67.5152C70.0464 67.4356 69.9953 67.2489 70.0785 67.1481C70.4912 66.6486 70.9431 67.5202 71.0977 66.955C71.1559 66.7429 71.2573 66.5217 71.456 66.4421C71.5298 66.4127 71.6189 66.4168 71.696 66.3855C71.7364 66.369 71.7677 66.3124 71.7933 66.2581C71.8188 66.2039 71.8386 66.1519 71.8559 66.1459L71.6667 65.9339C71.6947 65.8833 71.729 65.8304 71.7628 65.7757C71.8498 65.6354 71.9343 65.4827 71.9066 65.3318C71.8662 65.1101 72.1177 65.2256 72.2352 65.1809C72.2352 65.0255 71.9219 64.819 72.1553 64.7527C72.281 64.7169 72.4905 64.7343 72.5383 64.5784C72.6315 64.2767 72.5078 64.5292 72.7152 64.2965C72.8059 64.1948 72.791 64.0472 72.871 63.9575C72.9555 63.8627 72.9939 64.0104 73.0693 63.9809C73.146 63.9511 73.1551 63.8232 73.2586 63.8163L73.6713 63.7882C73.9797 63.7671 74.0131 63.6318 74.3033 63.6562C74.4233 63.6663 74.5783 63.6112 74.6781 63.642C74.7795 63.6732 74.8686 63.8029 74.9642 63.8163C75.4553 64.1001 75.713 63.8071 76.19 64.1364C76.3293 64.2325 76.4237 64.3779 76.5858 64.3668C77.229 64.3236 77.323 64.9882 78.0263 64.9882C78.2684 64.9882 78.8728 64.8866 78.8728 65.261C78.8728 65.4151 79.3989 65.554 79.4582 65.4445C79.4525 65.4358 79.4525 65.4394 79.4582 65.4302C79.2566 65.1322 79.0975 64.6405 79.2311 64.2399C79.4112 63.6985 79.3275 63.7919 79.3275 63.2423C79.5267 63.1687 79.6314 62.7658 79.8965 62.5974C80.0569 62.5625 80.1967 62.3725 80.3595 62.3573C80.4585 62.3481 80.5937 62.3845 80.6799 62.315C80.7516 62.2571 80.7351 61.747 80.9491 61.9857C81.0406 62.0878 81.4583 62.1467 81.4925 61.9526L81.5436 61.7162C81.7081 61.7842 81.8561 61.879 81.939 61.9714C82.1365 62.1922 82.407 62.0662 82.5624 62.2396C82.8485 62.5588 82.9347 62.775 83.3499 62.8702C83.6047 62.9291 84.0166 63.2579 84.2978 63.3973C84.5756 63.5357 84.6111 63.5104 84.8997 63.5104C85.0382 63.5104 85.1916 63.5941 85.3083 63.6659C85.4955 63.7804 85.6534 63.6521 85.8307 63.7174C85.8904 63.7395 85.9498 63.7583 86.0059 63.779L86.1003 63.3738C86.1052 63.3688 86.1246 63.3439 86.1531 63.3099C86.2541 63.1885 86.4635 62.9525 86.5002 63.1149C86.5163 63.1195 86.5196 63.1484 86.534 63.1526C86.5732 63.3301 87.3327 63.2193 87.4815 63.2515C87.6279 63.2832 87.5899 63.5228 87.8014 63.4442C88.0422 63.355 87.9899 63.4594 88.2018 63.2703C88.1754 63.2418 88.3465 63.2827 88.3617 63.2841C88.5337 63.3002 88.9299 63.3964 88.9934 63.1103C89.1698 63.062 89.2783 63.0224 89.4778 63.0068C89.8382 62.9783 89.9602 63.0454 90.316 63.2749C90.5646 63.4355 91.1097 63.1903 91.4531 63.2326C91.6716 63.2919 92.0551 63.2749 92.2365 63.3927C92.5993 63.6272 93.1452 63.515 93.5464 63.515C93.7438 63.515 93.9335 63.2616 94.1528 63.4065C94.6971 63.7657 95.2961 64.0021 95.9471 63.8209C96.3178 63.7174 95.9047 64.1479 96.1953 64.4041L96.8146 64.9501C96.9317 65.043 96.9325 65.1915 97.0756 65.2794C97.2446 65.3829 97.5522 65.1741 97.7328 65.2325C97.8857 65.2821 97.8882 65.3645 98.1034 65.3645C98.2049 65.3645 98.3158 65.4068 98.3982 65.4634C98.4704 65.5121 98.4568 65.6119 98.4951 65.6841C98.599 65.8819 98.7973 65.8506 98.8617 66.1409L99.0175 66.3478L99.2529 66.2724C99.344 66.1708 99.3094 65.9877 99.2232 65.8916C99.1024 65.7568 99.1894 65.6975 99.1894 65.5572C98.9144 65.4555 99.3164 65.0535 99.1812 64.9643C99.0299 64.8645 98.9288 64.4519 99.0591 64.2726C99.1803 64.1047 99.2488 64.0628 99.2863 63.8443C99.3585 63.4253 99.4735 63.6599 99.7497 63.5339C99.9447 63.4451 100.482 63.326 100.015 63.1526C99.8153 63.0785 99.7234 62.9212 99.5687 62.7947C99.523 62.6416 99.7745 62.6181 99.8507 62.602C100.026 62.5643 100.019 62.4751 100.129 62.3527C100.311 62.149 100.618 62.3569 100.811 62.1642C100.945 62.0294 100.764 61.8647 100.756 61.7456C100.739 61.4862 100.79 61.4692 100.546 61.402C100.502 61.2033 100.616 61.1872 100.659 61.0396C100.712 60.8634 100.615 60.7567 100.554 60.6114C100.432 60.3212 100.2 59.8111 100.146 59.496C100.015 59.2026 100.015 58.9993 99.9476 58.7054C99.8883 58.4455 99.6829 58.5223 99.8046 58.1691C99.8446 58.0522 99.6512 57.974 99.6232 57.8724C99.5683 57.6728 99.5601 57.452 99.6067 57.2515C99.699 56.8509 99.5436 56.5298 99.5349 56.1504C99.5349 55.7589 99.9802 55.5947 99.5308 55.2608C99.2805 55.075 98.9202 54.8938 98.9202 54.5125C98.9148 54.5107 98.9132 54.5088 98.9115 54.5033C98.7771 54.5033 98.637 54.6629 98.4861 54.6629C98.4362 54.4918 98.4193 54.2397 98.204 54.2397L98.1999 54.2347C98.1999 54.0466 98.6139 53.5793 98.7726 53.5618L99.5391 53.4771C99.772 53.4514 99.718 53.1515 100.024 53.2371C100.347 53.3277 100.602 52.9206 100.891 53.0913C101.144 53.2412 101.119 53.0549 101.321 52.9735C101.4 52.9418 101.492 53.0177 101.54 52.997C101.679 52.9367 101.877 52.8019 101.986 52.7054C102.015 52.6529 102.647 52.4556 102.71 52.4699C102.95 52.5246 103.066 52.2758 103.208 52.1171C103.449 52.2532 103.617 51.7464 103.86 52.1879C103.989 52.4197 104.134 52.7679 104.442 52.6538C104.788 52.5255 104.575 52.8558 104.778 52.7808C105.268 52.5996 105.092 52.7182 105.562 52.8797C106.078 53.0572 106.138 52.6828 106.105 52.1456C106.105 51.6144 105.513 51.5629 105.216 51.2938C105.197 51.2754 105.18 51.2528 105.169 51.2266C105.144 51.1742 105.134 51.1066 105.134 51.0312C105.134 50.7428 105.279 50.3353 105.313 50.1738C105.373 49.8946 105.34 49.5878 105.401 49.3077C105.512 49.2765 105.749 49.1831 105.726 49.0207C105.907 48.7038 106.056 47.9702 106.16 47.5949C106.275 47.1782 106.431 46.6672 106.598 46.2771C106.661 46.1295 106.786 45.6318 106.8 45.4773C106.976 44.9649 107.032 44.4843 107.28 44.0418C107.545 43.5699 107.094 43.0474 107.865 43.2797L108.413 43.4443C108.558 43.488 108.446 43.7359 108.666 43.7359C108.852 43.7359 109.183 44.166 109.403 44.235C109.786 44.3546 110.165 44.3339 110.485 44.5123C110.486 44.5091 110.481 44.5192 110.54 44.4843C110.652 44.4553 110.738 44.3495 110.86 44.31C110.914 44.2925 111.416 44.2538 111.449 44.263C111.562 44.2934 111.689 44.4548 111.795 44.4277C112.325 44.2906 112.469 44.3164 112.852 44.7428C112.783 44.8978 113.137 45.0385 113.244 44.6867C113.536 44.6867 113.569 44.2962 113.791 44.155L114.078 44.183C114.351 44.2097 114.439 44.1375 114.545 43.8725C114.694 43.4991 115.16 43.5759 115.198 43.0253C115.212 42.8115 115.304 42.7015 115.189 42.4936C115.094 42.3198 114.982 42.2278 114.92 42.018L115.055 41.5149L114.883 39.9805C114.778 39.5109 114.613 38.9065 114.929 38.4935C115.196 38.1444 115.234 37.6187 115.599 37.3689C115.938 37.2424 116.288 37.3169 116.635 37.3169C116.903 37.3169 117.091 36.943 117.288 37.063C117.469 37.173 118.314 36.105 118.408 35.9334C118.482 35.7973 118.315 35.588 118.395 35.4725C118.64 35.117 117.947 34.7817 118.399 34.3852C118.557 34.2472 118.564 33.8581 118.703 33.8581H119.314C119.381 33.5509 119.776 33.9883 119.903 33.9336C119.91 33.9161 119.928 33.8287 119.928 33.7689C119.928 33.7395 119.924 33.7169 119.911 33.7123C119.911 33.7022 119.908 33.682 119.915 33.6792C119.915 33.5739 120 33.4856 120 33.3595C119.89 33.3177 119.785 33.3094 119.65 33.2984C119.529 33.2878 119.469 33.1995 119.339 33.1995C119.249 33.1995 119.192 33.2298 119.12 33.1664C119.002 33.0638 118.951 32.9359 118.926 32.7759C118.897 32.6457 118.887 32.4065 118.753 32.3569C118.482 32.2561 118.681 32.16 118.614 31.9664C118.494 31.6173 117.651 31.8348 117.957 31.3735C118.04 31.2489 118.408 30.9917 118.408 30.9122C118.408 30.5258 118.291 30.3616 117.898 30.4702C117.898 30.9223 117.383 31.5354 116.917 31.5947C116.828 31.6058 116.875 32.0515 116.69 32.1264C116.594 32.1646 116.336 31.6729 116.167 31.9333C115.959 32.2557 116.032 31.5699 115.662 31.7263C115.465 31.8095 115.521 31.5888 115.342 31.6325C114.977 31.7208 115.144 31.5225 114.942 31.4347C114.841 31.391 114.379 31.6605 114.306 31.3312C114.175 31.3312 114.05 31.5865 113.956 31.5336C113.923 31.5147 113.799 31.1964 113.804 31.1288C113.804 30.7254 113.518 30.6606 113.518 30.3428C113.518 29.9417 113.183 30.1583 113.131 29.703C113.099 29.4302 113.303 29.5047 113.303 29.2982C113.231 29.2706 113.097 29.0246 113.013 28.9735C112.843 28.8691 112.806 28.9772 112.655 28.7854C112.566 28.6736 112.092 28.37 111.93 28.3995C111.727 28.4363 111.573 28.0844 111.458 28.2394C111.303 28.4501 111.027 28.1645 110.979 27.9478C110.944 27.7956 110.977 27.5656 110.941 27.3641C110.88 27.2961 110.808 26.9378 110.928 26.8936C110.928 26.6926 110.583 26.5211 110.532 26.3146C110.507 26.2147 110.518 26.1154 110.464 26.0229C110.396 25.9024 110.25 25.8045 110.149 25.7125C110.004 25.5805 110.191 25.3487 110.107 25.3027C109.962 25.224 109.706 24.8321 109.622 24.8321C109.499 24.8321 109.326 24.8358 109.273 24.6909C109.192 24.4702 109.014 24.5654 108.847 24.4936L108.426 24.2912C108.227 24.1951 108.224 24.3092 108.051 24.3239C107.801 24.3451 107.56 24.375 107.424 24.7195C107.363 24.8726 106.963 24.788 106.817 24.7572C106.287 24.6436 106.687 24.9991 106.375 25.3123C105.88 25.8081 105.583 25.3454 105.23 25.5616C104.783 25.8348 104.859 25.4678 104.501 25.4678C104.274 25.4678 103.85 25.5855 103.751 25.2512C103.65 25.2512 103.597 25.5556 103.481 25.5805C103.242 25.5805 103.041 25.6099 102.816 25.5524C102.656 25.5115 102.863 25.2456 102.825 25.1334C102.794 25.0456 102.643 24.9931 102.656 24.9545C102.925 24.1822 102.091 24.5686 101.721 24.5686C101.542 24.5686 101.857 23.7844 101.89 23.6653C102.095 22.9201 101.505 23.6225 101.279 23.1193C101.171 22.8783 100.998 22.8194 100.74 22.7431C100.44 22.6538 100.411 22.8305 100.411 23.1101C100.411 23.4399 99.7452 22.9634 99.7963 23.4252C99.8103 23.5526 99.746 23.7292 99.8763 23.8019C99.7988 23.9748 100.092 24.5829 99.7502 24.5829C99.4582 24.5829 99.0769 24.8556 99.0171 25.1992L98.7223 25.19L98.6802 25.637L97.3452 22.451L96.6769 20.8458L96.1661 19.6182L95.7488 18.8179L93.8201 14.9405L92.3375 12.0649L91.6172 11.3217L88.3951 8.26763C88.3049 8.09009 88.203 8.02707 88.2228 7.8109C88.241 7.61174 88.0991 7.59932 88.05 7.43466C87.9626 7.14075 88.3518 7.27459 88.5007 7.27459C88.6343 7.73132 89.1785 6.95309 89.1785 6.69552C89.1785 6.55891 89.2915 6.48947 89.3051 6.357C89.3389 6.024 89.0598 6.19602 89.0441 6.06953C89.1822 6.03182 89.4473 5.90349 89.5281 5.78253C89.4708 5.69652 89.4737 5.66433 89.4787 5.65466C89.4692 5.65926 89.4382 5.66754 89.3513 5.66018C89.2519 5.65189 89.103 5.71078 89.0103 5.75447C88.6693 5.915 88.8808 6.26731 88.4838 6.26731C88.2661 6.26731 88.0905 6.35792 87.8732 6.27697C87.4407 6.11507 87.5895 6.13393 87.3339 6.47429L87.4015 6.6486L85.5862 7.5708L85.3417 7.51469L84.929 7.75937L85.0935 8.13561L84.9797 8.3849C84.64 8.59509 84.1052 9.23857 83.7626 9.18015C83.4653 9.13002 83.0337 8.96305 83.0337 9.52373C82.9034 9.57294 82.8518 9.52557 82.7896 9.73116C82.7137 9.98137 82.7034 9.95241 82.4861 9.92388C82.092 9.67229 82.0784 10.3273 82.2082 10.5641C82.2561 10.6506 81.8739 11.4026 81.7617 10.9072C81.7543 10.9054 81.7341 10.8865 81.7324 10.8792C81.7271 10.8778 81.725 10.876 81.7197 10.8746C81.6875 10.7283 81.7593 10.5977 81.5935 10.531C81.4999 10.4933 81.3812 10.3466 81.3028 10.4698C81.255 10.4593 81.1796 10.6888 81.0794 10.5264C81.0258 10.4386 81.0769 10.2877 80.9994 10.2017C80.9446 10.1401 80.5137 10.1272 80.4646 10.2155C80.39 10.3507 80.3661 10.5811 80.1909 10.3852C80.0359 10.2113 79.5832 10.8732 79.3131 11.1335C79.2488 11.1952 79.1952 11.2343 79.1581 11.2343C79.1338 11.2343 79.1169 11.2177 79.1086 11.1804C79.0913 11.1754 79.0925 11.1501 79.0789 11.1427C79.0789 10.6759 78.613 10.6161 78.6242 10.399C78.6291 10.2978 78.7367 10.2366 78.7 10.1451C78.6254 9.95929 78.6811 9.96848 78.839 9.92386C78.8864 9.70999 79.0711 9.73943 78.9651 9.42989C78.8715 9.1553 79.1787 9.30524 79.2055 9.1852C79.377 9.13782 79.0616 8.80667 79.4075 8.84622C79.612 8.86968 79.739 8.92947 79.9382 8.87933C79.9382 8.71927 80.0058 8.53254 80.0478 8.38029C80.066 8.3136 80.1736 7.87803 80.1447 7.86745V7.8578C80.1422 7.85734 80.12 7.84629 80.1192 7.84399C80.1113 7.84399 80.1088 7.84676 80.1068 7.83894C79.9682 7.83894 79.9299 7.78328 79.791 7.83434C79.791 7.91575 79.7411 8.27128 79.5844 8.14019C79.4368 8.263 79.4801 8.56657 79.2137 8.35223C79.0971 8.25794 78.9136 8.46124 78.7293 8.43226C78.385 8.37799 77.9488 8.05005 77.887 7.71199C77.8709 7.62368 77.3663 7.48156 77.2553 7.48156C76.9515 7.48156 76.5982 7.26492 76.5982 7.82513C76.8002 7.89965 77.1246 8.01188 77.1246 8.34258L77.0908 8.38029C76.7264 8.38029 76.4942 8.0712 76.3203 8.65809C75.8263 8.65809 76.3289 7.93874 76.2613 7.81088C76.2246 7.74188 76.0131 7.62781 76.1475 7.56158C76.2671 7.50271 76.3846 7.49627 76.5013 7.45303C76.5013 7.33345 76.11 7.21616 76.0172 7.15223C75.802 7.00367 76.103 6.79117 75.8696 6.70516C75.8696 6.51474 75.6993 6.31099 75.5538 6.22958C75.2466 6.05756 75.2091 5.93751 75.1493 6.3142C75.1774 6.3694 75.3353 6.47795 75.3769 6.49312C75.3769 6.89788 75.0826 6.65457 75.4441 7.05794C75.7797 7.43234 75.2965 7.41946 75.2883 7.34035C75.259 7.05334 75.2751 7.19914 75.1114 7.01562C74.9077 6.78748 74.8855 6.75529 74.568 6.77553C74.2444 6.79623 74.084 6.85878 74.2188 7.31182C74.3248 7.67012 73.6717 7.55697 73.4985 7.55697C73.4973 7.55329 73.473 7.53444 73.4688 7.53306C73.4086 7.19776 73.4062 7.14716 73.0269 7.14716C72.8364 7.14716 72.7263 7.61032 72.5086 7.52846V7.51926C72.4364 7.49259 72.4101 7.38128 72.4035 7.28837C72.3894 7.10118 72.2938 7.13843 72.2348 7.01102C72.2489 6.88638 72.3391 6.66607 72.2179 6.61087C72.1013 6.55798 71.9326 6.58603 72.079 6.34732C72.194 6.16013 72.5676 6.41309 72.6306 6.33305C72.7403 6.19461 72.6339 5.93014 72.6983 5.83447C72.4463 5.4587 72.4859 4.70852 72.9131 4.54984C72.9131 4.43531 72.6294 4.16624 72.5383 4.15888C72.1829 4.13129 72.2571 4.08759 72.1718 3.74493C72.1078 3.48736 72.1128 3.43585 71.9569 3.21783C71.8399 3.05409 72.2439 1.99253 72.058 1.90008C71.8865 1.81499 71.9252 1.70231 71.797 1.57536C71.6589 1.43875 71.5125 1.12001 71.5232 0.921313C71.5385 0.639826 70.8763 1.02067 70.8701 1.02021C70.7312 1.00595 70.5762 0.796669 70.4364 0.8744C70.2476 0.979727 70.382 1.22488 70.1713 1.33067C70.0653 1.38402 69.6819 1.64343 69.6869 1.62273C69.6357 1.60847 69.6234 1.55696 69.5562 1.5427C69.3508 1.51741 69.2626 1.20557 69.0676 1.28376C68.8899 1.35505 68.7604 0.923161 68.6928 0.752056C68.4879 0.233236 67.5668 0.740086 67.383 0.328434C67.2696 0.0740838 66.929 0.822878 66.7134 0.413066C66.5786 0.157331 65.9803 -0.256614 65.9803 0.215755C65.9803 0.444349 65.8826 0.455841 66.1659 0.558869C66.1659 1.05745 66.0607 0.650402 65.8459 0.610847C65.5033 0.547834 65.6121 0.22679 65.3194 0.65776C65.2864 0.844038 65.1619 0.838525 65.0918 0.977884C65.0308 1.09931 65.2609 1.14668 65.1549 1.26489C65.1372 1.28467 64.6041 1.30767 64.5571 1.28834C64.529 1.2773 64.3806 1.26213 64.3926 1.31686C64.1489 1.47232 64.3645 1.32423 64.0937 1.34952L63.7948 1.37804C63.7948 1.43461 63.8516 1.54362 63.8871 1.5565C63.8871 1.72576 63.7762 1.61629 63.8916 1.8251C63.93 1.89501 63.9865 2.03944 64.0557 2.06474C64.0557 2.16133 63.9473 2.27355 63.8747 2.30023C63.8747 2.43315 64.0174 2.62955 63.8199 2.67187L63.3396 2.77536C63.0192 2.84481 62.9405 2.2133 62.6741 2.80847C62.5443 3.09915 62.5203 3.19345 62.228 3.28866C61.9378 3.36823 61.1903 3.10927 61.1202 3.4248C61.0435 3.76976 59.946 3.60739 59.6417 3.88152C59.4298 4.07286 58.7161 4.08988 58.3657 4.2389C58.0898 4.35665 57.8536 4.51533 57.6738 4.58525C57.4351 4.67816 57.2962 4.61514 57.2962 4.0931C57.2883 4.09126 57.2896 4.09264 57.2879 4.0839C56.6526 4.0839 57.0071 4.91825 56.378 4.59674C56.2258 4.57605 56.0011 4.42242 55.9022 4.42242C55.8519 4.59169 55.9706 5.013 55.8136 4.93573C55.6899 4.87456 55.2895 4.88329 55.1778 4.98264C54.97 5.16708 55.0421 6.21897 54.7902 6.29072C54.5062 6.37213 54.5008 5.82986 54.1627 5.82986C53.6053 5.82986 53.2173 6.12468 52.7432 6.28612C52.629 6.32522 52.5111 6.24059 52.3474 6.30039C52.0501 6.40847 51.8444 6.36937 51.5851 6.4793C51.1748 6.65224 51.5991 6.87578 51.341 7.0202C51.0639 7.17521 51.0573 6.52714 50.7765 6.61545C50.4653 6.68537 50.1614 6.95443 49.8415 7.04872C49.6613 7.10161 49.0507 6.95811 48.9484 7.18487C48.8845 7.32745 49.0548 7.59467 48.7464 7.59467C48.443 7.59467 48.2059 7.47003 47.9 7.57582C47.2877 7.78648 47.4514 7.64527 47.3145 8.24366C47.1888 8.79146 46.9241 8.71004 46.7121 8.23906C46.6491 8.09923 46.9521 8.05002 46.9521 7.99897C46.5584 7.85362 46.2137 8.05968 45.7981 7.89548C45.4856 8.0468 45.655 8.04773 45.655 8.30989C45.655 8.41017 45.6394 8.46995 45.533 8.46995C45.46 8.46995 45.1739 8.37014 45.1916 8.26758C45.2081 8.17145 45.2959 8.03208 45.1326 8.03208C45.0139 8.03208 44.8717 8.26206 44.7999 8.18249C44.8473 8.05186 44.6857 8.00954 44.602 8.02288C44.4635 8.0445 44.4585 8.13557 44.3703 8.24366C44.2878 8.34577 44.0335 7.99299 44.0335 7.9378C44.0335 7.71243 44.0784 7.60157 43.8104 7.6793C43.6067 7.73818 43.4975 7.91388 43.3301 7.97551C43.3301 8.17144 43.6224 8.49295 43.3173 8.58724C43.0349 8.67463 43.2072 8.15857 42.9005 8.27217C42.7937 8.31173 42.5278 8.42994 42.5426 8.57343C42.557 8.71648 42.6869 8.60472 42.7405 8.63461C42.959 8.75558 43.0584 8.56976 43.1614 8.89816C43.4216 9.23024 43.3346 9.3121 43.0691 9.6083C43.0501 9.62946 42.9351 9.68696 42.9215 9.64143C42.7298 9.69432 42.8827 9.98684 42.7487 10.0696C42.6354 10.1396 42.4869 9.86313 42.3616 10.0039C42.1229 10.2711 42.8427 10.2366 42.8922 10.2582C43.0613 10.3304 43.0988 10.6032 43.3173 10.6202C43.6579 10.6469 43.7399 10.3065 44.0796 10.404C44.5484 10.5379 44.3748 10.9192 44.0462 11.1238C43.7828 11.2876 43.7704 11.0797 43.629 10.9215C43.4373 10.7067 43.3214 11.3009 43.1829 11.3966C43.0761 11.4702 43.1569 11.6873 43.1742 11.811C43.1742 12.3192 43.7457 12.0465 44.0207 12.3192C44.4573 12.7511 44.5167 12.0125 44.8168 12.4085C44.964 12.6026 45.0663 12.7842 45.2844 12.8652C45.5074 12.9475 45.9684 12.9089 46.0129 13.2368C46.0636 13.6108 45.6105 14.2556 45.3644 13.8582C45.2295 13.6397 45.0448 13.6931 44.8255 13.6558C44.4194 13.5868 44.7253 14.0243 44.24 13.6039C43.932 13.3376 43.6335 13.889 43.4901 13.6273C43.3948 13.4539 43.3181 13.4838 43.1784 13.6273C43.0629 13.7464 42.926 13.9585 42.7488 13.8108C42.745 13.8141 42.7203 13.8177 42.7108 13.8205C42.7108 14.1737 43.011 14.073 42.5595 14.3614C42.4317 14.5891 42.2932 14.5826 42.1971 14.8604C42.127 15.0637 41.9831 14.9055 41.8475 14.9731C41.6768 15.0587 41.7902 15.6414 42.054 15.6414C42.2981 15.6414 42.1188 16.0324 42.172 16.1971C42.1843 16.2357 42.2598 16.209 42.2647 16.2251C42.3092 16.2251 42.5352 16.289 42.5426 16.3143C42.5546 16.3143 42.5599 16.3194 42.5719 16.3194C42.6061 16.4339 42.7982 17.1915 42.7743 17.2885C42.7141 17.5309 42.2396 17.84 42.0161 17.8722L41.7634 18.2158L41.1441 18.2249L40.3397 19.0579L39.7332 19.0722C39.6549 19.2626 39.9043 19.5008 39.9732 19.6416C40.1084 19.9162 40.2416 19.5698 40.2684 19.6227C40.3801 19.8449 40.9697 19.9879 41.1779 20.1167C41.4805 20.3039 41.1519 20.1871 41.0307 20.4088C40.9376 20.5785 40.71 20.5868 40.8493 20.7804C41.1903 21.2532 42.0103 20.9478 42.475 21.1194C42.4284 21.331 42.3591 21.4924 42.5298 21.6837C42.5999 21.7389 42.6214 21.8544 42.7067 21.8861C42.8127 21.9257 42.9397 21.8608 43.0225 21.9662C43.1322 22.1051 43.3919 21.9832 43.549 22.0462C43.655 22.089 43.6913 22.1432 43.8187 22.112C43.9028 22.0917 44.0623 22.065 44.1304 22.1405L44.1596 22.2674L44.3031 22.6579L44.6189 22.9826L44.3283 23.11L43.9956 25.3219L42.1382 26.1172L40.6638 25.9994L40.1967 25.3923L40.2556 25.1527L39.8384 25.0772L39.6871 25.4723C39.6673 25.6471 39.7411 25.7883 39.7164 25.9571C39.7048 26.0362 39.4455 26.1981 39.3836 26.2726C39.1515 26.5509 39.1705 26.8586 38.7689 26.6866C38.698 26.6562 38.3302 26.7813 38.3096 26.8512C38.2659 26.8388 38.2791 26.7708 38.2676 26.7289C38.2478 26.6581 38.1768 26.648 38.12 26.6112C38.2082 26.481 38.5388 26.4778 38.3434 26.343C38.1966 26.2418 38.0136 26.1314 37.8169 26.1314C37.4924 26.1314 36.8958 26.0243 36.5701 25.8628C36.2877 25.7235 36.2077 25.2906 35.9554 25.3077C35.6487 25.3284 35.8886 25.1058 35.8499 24.9314C35.6421 24.9314 35.6227 25.0575 35.5551 24.7852C35.5254 24.666 35.5674 24.4844 35.6268 24.4181C35.9406 24.0681 35.0949 23.9196 34.9906 23.8726L34.8612 23.3777C34.7816 23.4665 34.7214 23.5714 34.6117 23.5714C34.507 23.5714 34.439 23.7438 34.4097 23.8299C34.3503 24.0046 34.1817 24.121 34.098 23.891C33.9537 23.4955 33.9178 23.8142 33.6177 23.7126C33.421 23.6459 33.4363 23.6652 33.2681 23.5806C33.2351 23.564 33.1984 23.5631 33.1576 23.5704L33.1209 24.6771L32.7754 24.6536C32.3812 24.3248 32.3915 25.4613 31.8279 24.517C31.5723 24.0893 31.6807 23.8487 31.1328 23.9007L30.4884 23.9619C30.4195 23.9683 30.1169 23.8059 30.0798 23.8584C29.9338 24.064 30.2381 24.2342 30.1684 24.3758C29.9528 24.8137 29.4844 23.6243 29.2502 24.0511C29.2045 24.1343 29.3014 24.2452 29.2923 24.3524C29.2816 24.4853 29.0899 24.5046 29.1072 24.5547C29.2882 25.0814 28.5836 24.6771 28.5007 24.6771C28.5007 24.9806 28.3803 25.5965 28.2059 25.717C27.8398 25.9695 27.6674 26.2335 27.2622 26.423C26.8639 26.8678 27.0948 26.5339 26.7105 26.3665C26.661 26.3448 26.3654 25.6954 26.205 26.0514C26.1523 26.1687 25.8393 25.8145 25.7882 25.7501C25.6546 25.5827 25.1046 25.327 25.2914 25.1007C25.7676 24.5239 24.9562 24.8376 24.8659 24.7479L24.4911 24.3758C24.2652 24.1523 24.2009 24.1757 23.9226 24.15C23.7564 24.1348 23.7131 24.6035 23.7667 24.6628C23.864 24.7723 23.9902 24.7203 24.0867 24.7806C24.0961 24.7865 24.3114 27.1102 23.7581 26.6489C23.7259 26.756 23.6653 26.7436 23.6035 26.6921C23.542 26.641 23.4794 26.5509 23.4422 26.5026C23.2518 26.2547 23.3313 26.263 23.3495 25.9709C23.3664 25.7028 23.6806 25.132 23.5433 25.0956C23.3157 25.0354 23.2794 24.8716 23.0044 24.8463C22.8733 24.8344 22.9413 24.6279 22.7686 24.5731L22.6296 24.3896C22.6461 24.3588 22.6399 24.2907 22.6589 24.2627C22.5294 24.0681 22.5575 23.8901 22.402 23.7167C22.2318 23.5268 22.0194 23.3616 21.7914 23.3124C21.3511 23.2167 20.9701 23.099 20.9701 22.4979C20.9701 21.9731 20.4576 22.0917 20.3929 21.8912C20.3105 21.635 20.1154 21.7679 19.934 21.6603L19.6508 21.5458C19.5506 21.5885 19.4343 21.6318 19.2896 21.6699C18.9989 21.7463 18.6456 21.6138 18.4139 21.6699C18.2894 21.6998 18.195 21.7688 18.0997 21.8392C17.9987 21.9105 17.795 21.8999 17.7439 21.7592C17.6854 21.5996 17.6231 21.4105 17.5753 21.2367C17.544 21.1235 17.4462 21.0072 17.4363 20.8936L17.2933 20.2722C17.2578 20.1186 17.0203 20.6466 16.7709 20.5077C16.6592 20.4451 16.6678 20.7142 16.6151 20.7616C16.1483 21.181 15.9488 20.3012 15.5452 21.3121C15.4895 21.4515 15.6713 21.5784 15.6 21.7077C15.5348 21.8254 15.2532 21.7914 15.2124 21.9284C15.0958 21.8314 15.2899 21.4036 15.0821 21.4768C14.8978 21.5416 14.7898 21.7504 14.5639 21.8157C14.251 21.9059 13.8065 21.4234 14.1302 21.2933C14.1829 21.2721 14.333 21.2684 14.3578 21.2132C14.4711 20.9589 14.2085 20.8871 14.0795 20.7427C13.9438 20.5909 13.1246 20.9198 12.9679 20.6769C12.7881 20.3982 12.9761 20.3591 12.6014 20.2533C12.6014 20.4681 12.6269 20.7772 12.7317 20.9497C12.6805 21.0463 12.6154 21.5205 12.4076 21.2132C12.4294 21.181 12.5037 21.0352 12.4793 20.992C12.4492 20.9396 12.3227 21.0651 12.2728 20.997C12.173 20.86 12.0419 21.0417 11.9528 21.1709C11.9005 21.2468 11.9561 22.226 11.6663 22.0273C11.3715 21.8254 11.6345 22.324 11.3463 22.324C11.3167 22.4578 11.5335 22.4882 11.3167 22.6625C11.1847 22.7688 10.9926 22.8492 10.8368 22.9026C10.4533 23.0346 10.0897 23.1708 9.82168 23.5429C9.383 24.1509 8.71962 23.3409 8.53697 24.0654C8.4978 24.2875 8.43431 24.517 8.67591 24.6062C8.67591 25.3587 8.23311 25.0777 7.82535 25.4061C7.67156 25.5303 7.03787 26.6342 6.80616 26.3757C6.70845 26.2671 6.60744 26.3964 6.51549 26.3568C6.41324 26.3131 6.36129 26.0933 6.26275 26.0933C6.26193 26.0956 6.24502 26.1204 6.24173 26.1218C6.24173 26.2151 6.24008 26.3628 6.32583 26.3945L6.33862 26.6112C6.3782 27.0173 6.54395 27.4207 6.59548 27.83C6.62764 28.0862 6.86265 28.6749 6.69649 28.8603C6.60661 28.9606 7.04612 29.0199 7.03746 29.1712C7.2333 30.058 5.88675 29.8446 5.71936 30.4085C5.65009 30.4085 5.6204 30.3146 5.56351 30.2861C5.51032 30.2599 5.44806 30.362 5.41632 30.2627C5.35035 30.0585 5.21513 30.2484 5.12978 30.1403C5.08401 30.0828 5.02794 29.8611 4.99496 29.7733C4.83704 29.5962 4.80571 29.4688 4.7884 29.237C4.77768 29.0907 4.56452 28.8916 4.48948 28.7379C4.32539 28.4026 4.1782 27.8889 3.84094 27.7638C3.71066 27.7155 3.48514 27.3783 3.41545 27.2463C3.20807 26.8517 2.83452 27.451 2.7331 27.6322C2.6259 27.8245 2.47336 27.744 2.39213 27.9473C2.35421 28.042 2.59415 28.4183 2.35008 28.4183C2.34802 28.4252 2.30761 28.4716 2.29978 28.4841L2.55251 28.9923L2.07219 29.7921L1.18741 30.1592L0.825415 32.7662C1.07527 33.0113 1.60877 33.3549 1.60877 33.7546C1.60877 34.2122 1.16886 34.6552 0.825828 34.8368L0 37.3031L0.399924 37.5478L0.589583 37.5427L0.732659 37.7124L1.82772 38.131L1.777 38.3196L1.86977 38.71L1.79844 38.9405L2.1056 39.044L2.09323 39.1617L1.96336 39.1571L1.92089 39.2983L1.68506 39.4584L2.01366 40.1639L1.86235 40.2771L2.09818 40.6441L2.62881 41.03L2.72117 40.6818L2.71292 40.2674L3.42042 40.6441L4.29654 40.6818L4.54927 40.6345L5.05475 41.0392L5.30748 41.5194L5.69463 42.2723L5.98942 42.2815L6.46975 43.637L7.169 44.9078L7.42173 45.4345L7.17723 45.7831L6.73072 45.83C6.47675 45.83 6.49901 45.5196 6.31389 45.4395C6.09867 45.3462 5.98654 45.7077 5.93912 45.8627C5.91149 45.9524 6.06899 46.1313 6.14114 46.1313C6.15021 46.1621 6.19391 46.1685 6.15393 46.2251C6.13867 46.2467 6.05621 46.3415 6.06528 46.3617C6.09579 46.4298 6.31678 46.3948 6.3811 46.3948C6.579 46.3948 6.78391 46.4905 6.84864 46.7145L7.11828 47.0443C7.28155 47.0802 7.44895 47.2522 7.57758 47.2982C7.77342 47.3681 8.18448 47.3239 8.28054 47.5617C8.36918 47.7807 8.56049 47.7738 8.65573 47.9899C8.67346 48.0309 8.65903 48.0805 8.65903 48.1261V48.1311C8.70768 48.1711 8.9901 48.3427 9.03834 48.3427C9.05359 48.3942 9.18512 47.9738 9.18965 47.9568C9.20161 47.9568 9.2115 47.9504 9.21934 47.9568C9.30509 47.9881 9.557 48.0543 9.61102 48.1031C9.86417 48.3312 9.88066 48.2585 9.95652 47.9196L10.0365 47.5617C10.067 47.4256 9.96476 47.3745 9.96476 47.2655C10.2641 47.1524 10.1037 46.847 10.1037 46.6584C10.1037 46.1603 10.4608 46.5876 10.5502 46.1828C10.6084 46.0278 10.7576 45.7205 10.8702 45.6419C10.9217 45.6056 10.9036 46.0209 10.925 46.0839C11.0338 46.3999 11.2594 45.5987 11.2787 45.5334C11.3427 45.3181 11.6061 45.5637 11.6873 45.1948C11.7661 45.1948 11.7434 45.2036 11.7632 45.2937C11.9285 45.2937 11.83 45.6635 12.0411 45.3733C12.0939 45.3006 12.1776 44.8246 12.319 44.8651C12.3598 44.877 12.3375 45.0132 12.3656 45.0582C12.4068 45.1249 12.6513 44.8255 12.7065 44.7758C12.9675 44.5417 13.1535 44.7754 13.4017 44.8747C13.6552 44.9764 14.2139 44.4474 14.5936 44.6581C14.7655 44.7537 14.9247 44.7137 14.8294 44.9547C14.6765 45.3402 14.8979 45.1194 15.0945 45.1194C15.4763 45.1608 15.2961 45.4726 15.4908 45.6368C15.5885 45.302 15.7822 45.3213 16.0383 45.3029C16.3207 45.2827 16.7713 45.7716 17.0488 45.5568C17.2863 45.3733 17.3312 45.1295 17.6932 45.331C17.9134 45.4542 17.8812 45.5384 18.1905 45.5384C18.4902 45.5384 18.2911 46.1501 18.6873 46.0278C19.0538 45.9142 19.3057 46.0549 19.121 46.531C19.0381 46.6418 19.1507 46.8506 19.1507 46.978C19.1507 47.0286 19.1103 47.1298 19.0592 47.2402C19.008 47.3511 18.9462 47.4706 18.9037 47.5594C18.8868 47.5939 18.8732 47.6238 18.8642 47.6463C18.7928 47.8253 18.6547 47.8575 18.6366 48.1031C18.6304 48.1891 18.6081 48.3634 18.6283 48.4513C18.6803 48.6785 18.4902 48.6099 18.4218 48.8091C18.3587 48.9931 18.1447 48.9163 18.2156 49.2373C18.5141 49.2373 18.5261 49.0869 18.8514 49.27C18.8922 49.293 19.0629 49.4231 19.0703 49.3219C19.0818 49.1683 19.0134 49.161 19.1297 49.0961C19.1317 49.1007 19.4451 49.0432 19.3696 49.1476C19.3424 49.1849 19.1338 49.6669 19.1462 49.7028C19.2723 50.0689 19.0851 49.8959 19.0369 50.1687C18.8959 50.3564 19.1313 50.7381 19.0241 50.9782C18.9911 51.0527 18.8365 51.1231 18.78 51.044C18.7025 50.9359 18.7347 50.848 18.7001 50.7289C18.6757 50.7468 18.5842 50.6843 18.5776 50.6631C18.5471 50.6857 18.3294 50.8287 18.3294 50.8747C18.3294 50.9465 18.4914 51.5094 18.3756 51.5476C18.2436 51.5913 18.2515 51.4427 18.1777 51.3406C18.1468 51.2979 17.9959 51.1981 17.9418 51.1525C17.9163 51.2404 17.5745 51.4165 17.6091 51.5242C17.6289 51.5862 17.7357 51.8346 17.6302 51.8346C17.5621 51.8346 17.3857 51.801 17.3312 51.7642C17.2727 51.7771 16.8983 51.9105 16.8468 51.8677C16.7239 51.9703 15.5472 51.7854 15.499 51.623C15.4908 51.623 15.1824 52.0752 15.0146 52.1359C14.8129 52.209 14.5169 52.0089 14.4757 52.0844C14.3974 52.226 14.3025 52.404 14.1974 52.531C13.9863 52.7872 13.9447 52.8465 13.9447 53.2135C14.1116 53.4463 13.5266 53.6992 13.4058 53.7972C13.1349 54.0161 13.2401 54.4844 12.9003 54.4844L12.8962 54.489C12.8962 54.7429 13.3691 54.4936 13.5447 54.7663C13.6185 54.8808 13.6911 54.8358 13.7806 54.8749C14.1821 55.0487 13.7703 55.7051 14.3957 55.6559C14.533 55.6453 15.2096 55.873 14.9177 56.0372C14.8583 56.0707 14.5928 56.0877 14.568 56.004C14.5602 56.004 14.5577 56.0073 14.5557 55.9994C14.4147 55.9994 14.326 56.1287 14.286 55.9005C14.1071 55.8513 14.1063 55.9705 13.9447 56.0606C13.8094 56.1365 13.6486 56.0836 13.553 56.1406C13.3295 56.0339 13.3472 55.8578 13.111 55.7501C12.9296 55.6674 12.8401 55.3652 12.6352 55.4866C12.4155 55.6168 12.3973 55.5468 12.18 55.5147C11.9586 55.4825 11.6927 55.4723 11.4812 55.4112C11.1468 55.315 11.2186 55.849 11.0219 55.849C11.0219 55.9364 11.0322 56.0716 11.0516 56.1641C11.1287 56.6093 11.0619 56.797 11.5146 56.917C11.9628 57.0362 12.5684 56.998 12.8162 57.5007C12.9329 57.738 12.843 58.0135 12.9213 58.2302C12.9502 58.3097 13.0995 58.2973 13.17 58.3852C13.2602 58.4983 13.2594 58.6515 13.2751 58.795C13.3679 59.1515 13.4305 59.4086 13.6037 59.736C13.6528 59.8285 13.6985 60.0838 13.7595 60.1311C13.7896 60.1546 14.0011 60.2066 14.0036 60.2158H14.0123C14.0448 60.3275 14.2733 60.5575 14.2733 60.7194C14.2333 60.7346 14.1013 61.6729 14.1471 61.7409C14.1232 61.7754 14.0749 62.0684 14.0712 62.1172C14.0589 62.2855 14.5198 62.1112 14.6484 62.0891C14.8632 62.0519 15.0673 62.0505 15.238 62.1126C15.238 62.1968 15.2125 62.2611 15.2125 62.3476C15.2153 62.4447 15.6083 62.9239 15.6887 63.0582C15.7703 63.1953 15.847 63.5665 15.9624 63.5665C16.4728 63.5665 16.5837 63.1493 16.9899 63.7362C17.0163 63.7744 17.5753 63.4193 17.8198 63.6608C18.1105 63.9482 18.4218 63.9928 18.4218 64.4937C18.4218 65.1772 18.0041 64.181 17.8577 64.1267C17.8577 64.3677 18.2239 64.6722 18.2239 64.9735C18.2239 65.4224 17.993 65.6836 17.8701 66.0939C17.5807 66.34 17.3576 66.5902 17.5164 66.988C17.5498 67.0713 17.4846 67.172 17.5164 67.27C17.5728 67.4452 17.6635 67.4098 17.6512 67.637C17.6479 67.6991 17.6561 68.0142 17.5922 68.0372C17.5922 68.1632 17.5357 68.2239 17.5357 68.2855C17.5357 68.2961 17.5374 68.3071 17.5415 68.3182L19.0707 66.7856L20.9578 65.9807L22.7265 65.6703L24.4363 67.1476L24.8408 67.7124L24.8659 68.108L25.2955 68.8421L26.0368 70.1221C26.1263 70.2863 26.3687 70.6446 26.5506 70.6161C26.5679 70.5186 26.6635 70.4891 26.7274 70.4891C26.7868 70.6892 27.1282 70.3728 27.275 70.4183C27.4551 70.4749 27.3978 70.4201 27.5446 70.3479C27.6312 70.3052 27.7417 70.3001 27.8476 70.3001C27.8806 70.3001 27.9132 70.3006 27.9445 70.3006L27.9499 53.7397L30.0044 53.0066L35.6495 50.992C35.6775 50.8669 35.7043 50.7468 35.7319 50.6397C35.7171 50.5578 35.9039 49.9162 35.9637 49.849C36.0193 49.7879 36.0878 49.8417 36.1533 49.7593C36.3121 49.5606 36.3104 49.3983 36.5747 49.4204C36.7784 49.4378 36.9561 49.2465 37.1177 49.3026C37.2805 49.3592 37.3634 49.3514 37.497 49.2134C37.8936 48.8031 37.5155 49.5919 37.4422 49.7308C37.2719 50.0523 37.1181 49.6664 37.0377 49.9005C37.008 49.987 37.0175 50.0997 36.9746 50.1779C36.9276 50.2639 36.8344 49.9599 36.7091 50.1544C36.5862 50.3462 36.7008 50.6512 36.545 50.8651C36.4254 51.0293 36.2865 51.1562 36.1236 51.2698C36.1051 51.2841 36.0882 51.3025 36.0737 51.3236L38.1777 52.7035C38.1868 52.6193 38.1851 52.5439 38.1496 52.4887C37.9818 52.2283 38.3904 52.0972 38.4655 51.9284C38.5112 51.8263 38.477 51.5246 38.3306 51.538C38.1661 51.5531 38.1872 52.0913 38.0404 52.0747C37.8561 52.0536 37.9056 51.4147 37.9728 51.2979C37.9629 51.2381 37.939 51.1525 37.939 51.0959C37.9365 51.095 37.908 51.078 37.901 51.072C37.8441 51.1194 37.7518 51.0325 37.7369 50.9731C37.7217 50.9124 37.9229 50.4842 37.96 50.5077C38.1888 50.6484 38.1562 50.5445 38.3137 50.3568C38.4762 50.1641 38.496 50.1604 38.5962 50.343C38.6543 50.4488 38.7611 50.2515 38.8023 50.4465C38.8534 50.6866 38.6683 50.9368 38.8741 51.1663C39.0983 51.4165 39.5312 51.101 39.5312 51.6088C39.5312 51.8015 39.5733 51.9832 39.5733 52.1736C39.5733 52.3806 39.4723 52.5494 39.4723 52.7711C39.5329 52.9518 39.5824 53.116 39.6178 53.2743C39.6533 53.4329 39.6747 53.5861 39.6793 53.7448L42.9591 56.6866L43.0691 57.3406L45.5879 60.5971L47.0449 60.5028L49.336 59.9099L51.4334 60.2204L53.017 60.3055L54.1797 59.5521L54.4155 59.6086L54.9461 60.6628L55.9822 61.4438L56.8497 63.4864L57.6582 63.1194L57.6062 65.4818Z"/>
</mask>
<path d="M89.731 61.7603C89.7421 61.8937 89.6691 62.0478 89.5434 62.0759C89.4914 62.0874 89.449 62.0239 89.4044 62.0662C89.3521 62.1163 89.3339 62.2299 89.2737 62.132C89.2436 62.0832 89.2412 61.954 89.2317 61.8923C89.2156 61.7842 89.1801 61.7778 89.2593 61.69C89.3022 61.6417 89.362 61.5777 89.3921 61.5179C89.4242 61.4535 89.4395 61.2342 89.4972 61.219L89.5454 61.2075C89.5669 61.2135 89.5792 61.2544 89.5961 61.2544C89.6159 61.2544 89.625 61.2121 89.632 61.2098C89.632 61.104 89.7231 61.0433 89.7479 61.1909C89.7705 61.328 89.6955 61.4168 89.672 61.5368C89.6551 61.6214 89.7244 61.6831 89.731 61.7603ZM49.4943 51.532C48.6017 51.532 47.8773 50.7244 47.8773 49.7281C47.8773 48.7319 48.6017 47.9242 49.4943 47.9242C50.3873 47.9242 51.1113 48.7319 51.1113 49.7281C51.1113 50.7244 50.3873 51.532 49.4943 51.532ZM43.8817 46.4464C43.6739 46.767 43.4051 46.6782 43.4352 47.157C43.4501 47.3907 43.4851 47.7209 43.2963 47.8488L43.2163 47.9569L42.6226 48.2581C42.2643 48.4398 42.2894 48.6675 41.9736 48.5497C41.9736 48.2839 42.1987 48.2632 42.0582 47.9146C42.014 47.806 41.8528 47.3171 41.7885 47.3686C41.0526 47.9619 41.1672 47.1161 40.6473 47.157C40.2197 47.1906 40.2453 47.5213 39.8342 47.1897C39.5551 46.9648 39.659 46.2565 39.9691 46.1309C40.0915 46.0817 40.4848 45.7326 40.4956 45.7312C40.6197 45.7151 40.6448 45.9078 40.7231 45.9805C40.7924 46.1254 40.8283 46.3365 40.8283 46.503C40.8283 46.8935 40.966 46.6856 41.0093 46.4322C41.027 46.33 40.994 46.1323 41.102 46.2394C41.1433 46.2804 41.3065 46.5021 41.3671 46.451C41.4141 46.4901 41.5836 46.3388 41.6285 46.3052C41.6665 46.2772 41.8347 46.1796 41.8347 46.1594C42.0037 46.112 41.8013 45.9014 41.7337 45.8627C41.6492 45.814 41.5069 45.751 41.443 45.6792C41.1932 45.3982 41.2917 45.3812 41.5947 45.4014C41.7312 45.4106 41.9205 45.4893 42.0582 45.5242C42.1377 45.544 41.9947 46.1658 42.0413 46.3521C42.1348 46.7284 42.3538 46.7606 42.6395 46.8792C42.8316 46.796 43.4991 47.0006 43.3721 46.5734C43.3045 46.3457 43.7209 45.7924 43.8735 45.9193C43.9287 45.8729 44.1159 45.842 44.1724 45.8627C44.1724 46.0743 43.9897 46.2795 43.8817 46.4464ZM41.262 49.2277C41.2348 49.2576 41.0435 49.4236 41.0559 49.2746C41.0608 49.2135 41.0654 48.8712 40.959 48.931C40.9528 48.9108 40.8394 48.9577 40.8242 48.9596L40.2008 49.0207C40.1237 49.0281 39.8738 49.0598 39.8932 49.1803C39.9588 49.5878 40.3174 48.9973 40.4914 49.3501C40.6543 49.6812 41.2756 49.2732 41.0893 49.6513C40.9091 50.0165 39.6813 49.3662 39.3964 49.2369C39.1993 49.1477 38.8505 49.3694 38.874 48.9968C38.8921 48.7121 38.9544 48.5111 38.7264 48.3193L38.5623 48.1215C38.4786 48.0199 38.4197 47.887 38.3644 47.7642C38.2671 47.5475 38.3306 47.5153 38.4823 47.623C38.7013 47.7784 38.9408 47.3313 39.1185 47.8814C39.1803 48.0737 39.2467 48.3943 39.0591 48.4982C38.9482 48.5599 38.9565 48.9375 39.055 48.9122C39.2418 48.8648 39.4471 48.7107 39.6532 48.6532C39.9901 48.5599 40.3962 48.7116 40.7396 48.6206C41.0056 48.5502 41.0905 48.7898 41.2789 48.7898C41.3919 48.7898 41.6368 48.8013 41.7296 48.8653C41.8805 48.9688 41.3082 49.1762 41.262 49.2277ZM57.6062 65.4818L57.5992 65.7835L57.33 65.7172L57.3634 67.6187L58.9301 67.8542L59.4356 71.1009L61.3309 71.1764L62.3587 70.8562C62.4527 70.9004 62.5987 71.0586 62.6914 71.0586C62.7929 71.0586 63.119 70.9229 63.1714 71.0397C63.2056 71.117 63.0988 71.4822 63.1841 71.5057C63.2056 71.4335 63.5548 71.2886 63.5548 71.4445C63.5548 71.5517 63.4311 71.5857 63.4492 71.7458C63.4851 72.0544 63.4727 72.0438 63.2893 72.2494C63.2369 72.3078 62.9541 72.4394 63.1375 72.513C63.6443 72.7163 63.9597 73.1449 64.4478 73.4163C64.6099 73.4747 64.6672 73.5483 64.8519 73.5483C64.8539 73.5543 64.9203 73.5856 64.9319 73.5856C64.9389 73.6095 65.0807 73.552 65.1005 73.5386C65.3598 73.3611 64.9817 73.0704 64.9405 72.8892C64.9079 72.7471 65.0003 72.6997 64.9277 72.5176C64.87 72.3731 64.8816 72.2788 64.8816 72.1271C64.729 72.0714 64.6136 71.6828 64.7888 71.5622C64.9117 71.4776 65.0646 71.8097 65.0877 71.887C65.0992 71.887 65.1195 71.892 65.1256 71.887C65.1339 71.8939 65.3512 71.8258 65.3742 71.8115C65.5388 71.7099 65.2609 71.5576 65.4163 71.3691C65.5144 71.2504 65.7956 71.0195 65.9218 70.9317C65.9172 70.8558 66.1704 70.6975 66.1704 70.428C66.1704 70.3917 66.2858 70.3655 66.3093 70.2868C66.3819 70.0421 66.3374 70.0683 66.5703 69.9952C66.6965 69.9557 66.6384 69.762 66.8441 69.7174C67.1117 69.6594 67.3887 69.9129 67.4885 69.4916C67.5582 69.1977 67.7227 69.3711 67.813 69.1057C67.895 68.8633 68.3069 68.5919 68.5159 68.5363C68.6541 68.4995 68.7749 68.6379 68.9245 68.574C69.0321 68.5284 69.0833 68.2796 69.2449 68.2539C69.301 68.2083 69.3991 68.0584 69.451 68.0423C69.658 67.9774 69.5768 67.9843 69.6786 67.8022C69.7693 67.6398 69.8151 67.6223 69.9482 67.5152C70.0464 67.4356 69.9953 67.2489 70.0785 67.1481C70.4912 66.6486 70.9431 67.5202 71.0977 66.955C71.1559 66.7429 71.2573 66.5217 71.456 66.4421C71.5298 66.4127 71.6189 66.4168 71.696 66.3855C71.7364 66.369 71.7677 66.3124 71.7933 66.2581C71.8188 66.2039 71.8386 66.1519 71.8559 66.1459L71.6667 65.9339C71.6947 65.8833 71.729 65.8304 71.7628 65.7757C71.8498 65.6354 71.9343 65.4827 71.9066 65.3318C71.8662 65.1101 72.1177 65.2256 72.2352 65.1809C72.2352 65.0255 71.9219 64.819 72.1553 64.7527C72.281 64.7169 72.4905 64.7343 72.5383 64.5784C72.6315 64.2767 72.5078 64.5292 72.7152 64.2965C72.8059 64.1948 72.791 64.0472 72.871 63.9575C72.9555 63.8627 72.9939 64.0104 73.0693 63.9809C73.146 63.9511 73.1551 63.8232 73.2586 63.8163L73.6713 63.7882C73.9797 63.7671 74.0131 63.6318 74.3033 63.6562C74.4233 63.6663 74.5783 63.6112 74.6781 63.642C74.7795 63.6732 74.8686 63.8029 74.9642 63.8163C75.4553 64.1001 75.713 63.8071 76.19 64.1364C76.3293 64.2325 76.4237 64.3779 76.5858 64.3668C77.229 64.3236 77.323 64.9882 78.0263 64.9882C78.2684 64.9882 78.8728 64.8866 78.8728 65.261C78.8728 65.4151 79.3989 65.554 79.4582 65.4445C79.4525 65.4358 79.4525 65.4394 79.4582 65.4302C79.2566 65.1322 79.0975 64.6405 79.2311 64.2399C79.4112 63.6985 79.3275 63.7919 79.3275 63.2423C79.5267 63.1687 79.6314 62.7658 79.8965 62.5974C80.0569 62.5625 80.1967 62.3725 80.3595 62.3573C80.4585 62.3481 80.5937 62.3845 80.6799 62.315C80.7516 62.2571 80.7351 61.747 80.9491 61.9857C81.0406 62.0878 81.4583 62.1467 81.4925 61.9526L81.5436 61.7162C81.7081 61.7842 81.8561 61.879 81.939 61.9714C82.1365 62.1922 82.407 62.0662 82.5624 62.2396C82.8485 62.5588 82.9347 62.775 83.3499 62.8702C83.6047 62.9291 84.0166 63.2579 84.2978 63.3973C84.5756 63.5357 84.6111 63.5104 84.8997 63.5104C85.0382 63.5104 85.1916 63.5941 85.3083 63.6659C85.4955 63.7804 85.6534 63.6521 85.8307 63.7174C85.8904 63.7395 85.9498 63.7583 86.0059 63.779L86.1003 63.3738C86.1052 63.3688 86.1246 63.3439 86.1531 63.3099C86.2541 63.1885 86.4635 62.9525 86.5002 63.1149C86.5163 63.1195 86.5196 63.1484 86.534 63.1526C86.5732 63.3301 87.3327 63.2193 87.4815 63.2515C87.6279 63.2832 87.5899 63.5228 87.8014 63.4442C88.0422 63.355 87.9899 63.4594 88.2018 63.2703C88.1754 63.2418 88.3465 63.2827 88.3617 63.2841C88.5337 63.3002 88.9299 63.3964 88.9934 63.1103C89.1698 63.062 89.2783 63.0224 89.4778 63.0068C89.8382 62.9783 89.9602 63.0454 90.316 63.2749C90.5646 63.4355 91.1097 63.1903 91.4531 63.2326C91.6716 63.2919 92.0551 63.2749 92.2365 63.3927C92.5993 63.6272 93.1452 63.515 93.5464 63.515C93.7438 63.515 93.9335 63.2616 94.1528 63.4065C94.6971 63.7657 95.2961 64.0021 95.9471 63.8209C96.3178 63.7174 95.9047 64.1479 96.1953 64.4041L96.8146 64.9501C96.9317 65.043 96.9325 65.1915 97.0756 65.2794C97.2446 65.3829 97.5522 65.1741 97.7328 65.2325C97.8857 65.2821 97.8882 65.3645 98.1034 65.3645C98.2049 65.3645 98.3158 65.4068 98.3982 65.4634C98.4704 65.5121 98.4568 65.6119 98.4951 65.6841C98.599 65.8819 98.7973 65.8506 98.8617 66.1409L99.0175 66.3478L99.2529 66.2724C99.344 66.1708 99.3094 65.9877 99.2232 65.8916C99.1024 65.7568 99.1894 65.6975 99.1894 65.5572C98.9144 65.4555 99.3164 65.0535 99.1812 64.9643C99.0299 64.8645 98.9288 64.4519 99.0591 64.2726C99.1803 64.1047 99.2488 64.0628 99.2863 63.8443C99.3585 63.4253 99.4735 63.6599 99.7497 63.5339C99.9447 63.4451 100.482 63.326 100.015 63.1526C99.8153 63.0785 99.7234 62.9212 99.5687 62.7947C99.523 62.6416 99.7745 62.6181 99.8507 62.602C100.026 62.5643 100.019 62.4751 100.129 62.3527C100.311 62.149 100.618 62.3569 100.811 62.1642C100.945 62.0294 100.764 61.8647 100.756 61.7456C100.739 61.4862 100.79 61.4692 100.546 61.402C100.502 61.2033 100.616 61.1872 100.659 61.0396C100.712 60.8634 100.615 60.7567 100.554 60.6114C100.432 60.3212 100.2 59.8111 100.146 59.496C100.015 59.2026 100.015 58.9993 99.9476 58.7054C99.8883 58.4455 99.6829 58.5223 99.8046 58.1691C99.8446 58.0522 99.6512 57.974 99.6232 57.8724C99.5683 57.6728 99.5601 57.452 99.6067 57.2515C99.699 56.8509 99.5436 56.5298 99.5349 56.1504C99.5349 55.7589 99.9802 55.5947 99.5308 55.2608C99.2805 55.075 98.9202 54.8938 98.9202 54.5125C98.9148 54.5107 98.9132 54.5088 98.9115 54.5033C98.7771 54.5033 98.637 54.6629 98.4861 54.6629C98.4362 54.4918 98.4193 54.2397 98.204 54.2397L98.1999 54.2347C98.1999 54.0466 98.6139 53.5793 98.7726 53.5618L99.5391 53.4771C99.772 53.4514 99.718 53.1515 100.024 53.2371C100.347 53.3277 100.602 52.9206 100.891 53.0913C101.144 53.2412 101.119 53.0549 101.321 52.9735C101.4 52.9418 101.492 53.0177 101.54 52.997C101.679 52.9367 101.877 52.8019 101.986 52.7054C102.015 52.6529 102.647 52.4556 102.71 52.4699C102.95 52.5246 103.066 52.2758 103.208 52.1171C103.449 52.2532 103.617 51.7464 103.86 52.1879C103.989 52.4197 104.134 52.7679 104.442 52.6538C104.788 52.5255 104.575 52.8558 104.778 52.7808C105.268 52.5996 105.092 52.7182 105.562 52.8797C106.078 53.0572 106.138 52.6828 106.105 52.1456C106.105 51.6144 105.513 51.5629 105.216 51.2938C105.197 51.2754 105.18 51.2528 105.169 51.2266C105.144 51.1742 105.134 51.1066 105.134 51.0312C105.134 50.7428 105.279 50.3353 105.313 50.1738C105.373 49.8946 105.34 49.5878 105.401 49.3077C105.512 49.2765 105.749 49.1831 105.726 49.0207C105.907 48.7038 106.056 47.9702 106.16 47.5949C106.275 47.1782 106.431 46.6672 106.598 46.2771C106.661 46.1295 106.786 45.6318 106.8 45.4773C106.976 44.9649 107.032 44.4843 107.28 44.0418C107.545 43.5699 107.094 43.0474 107.865 43.2797L108.413 43.4443C108.558 43.488 108.446 43.7359 108.666 43.7359C108.852 43.7359 109.183 44.166 109.403 44.235C109.786 44.3546 110.165 44.3339 110.485 44.5123C110.486 44.5091 110.481 44.5192 110.54 44.4843C110.652 44.4553 110.738 44.3495 110.86 44.31C110.914 44.2925 111.416 44.2538 111.449 44.263C111.562 44.2934 111.689 44.4548 111.795 44.4277C112.325 44.2906 112.469 44.3164 112.852 44.7428C112.783 44.8978 113.137 45.0385 113.244 44.6867C113.536 44.6867 113.569 44.2962 113.791 44.155L114.078 44.183C114.351 44.2097 114.439 44.1375 114.545 43.8725C114.694 43.4991 115.16 43.5759 115.198 43.0253C115.212 42.8115 115.304 42.7015 115.189 42.4936C115.094 42.3198 114.982 42.2278 114.92 42.018L115.055 41.5149L114.883 39.9805C114.778 39.5109 114.613 38.9065 114.929 38.4935C115.196 38.1444 115.234 37.6187 115.599 37.3689C115.938 37.2424 116.288 37.3169 116.635 37.3169C116.903 37.3169 117.091 36.943 117.288 37.063C117.469 37.173 118.314 36.105 118.408 35.9334C118.482 35.7973 118.315 35.588 118.395 35.4725C118.64 35.117 117.947 34.7817 118.399 34.3852C118.557 34.2472 118.564 33.8581 118.703 33.8581H119.314C119.381 33.5509 119.776 33.9883 119.903 33.9336C119.91 33.9161 119.928 33.8287 119.928 33.7689C119.928 33.7395 119.924 33.7169 119.911 33.7123C119.911 33.7022 119.908 33.682 119.915 33.6792C119.915 33.5739 120 33.4856 120 33.3595C119.89 33.3177 119.785 33.3094 119.65 33.2984C119.529 33.2878 119.469 33.1995 119.339 33.1995C119.249 33.1995 119.192 33.2298 119.12 33.1664C119.002 33.0638 118.951 32.9359 118.926 32.7759C118.897 32.6457 118.887 32.4065 118.753 32.3569C118.482 32.2561 118.681 32.16 118.614 31.9664C118.494 31.6173 117.651 31.8348 117.957 31.3735C118.04 31.2489 118.408 30.9917 118.408 30.9122C118.408 30.5258 118.291 30.3616 117.898 30.4702C117.898 30.9223 117.383 31.5354 116.917 31.5947C116.828 31.6058 116.875 32.0515 116.69 32.1264C116.594 32.1646 116.336 31.6729 116.167 31.9333C115.959 32.2557 116.032 31.5699 115.662 31.7263C115.465 31.8095 115.521 31.5888 115.342 31.6325C114.977 31.7208 115.144 31.5225 114.942 31.4347C114.841 31.391 114.379 31.6605 114.306 31.3312C114.175 31.3312 114.05 31.5865 113.956 31.5336C113.923 31.5147 113.799 31.1964 113.804 31.1288C113.804 30.7254 113.518 30.6606 113.518 30.3428C113.518 29.9417 113.183 30.1583 113.131 29.703C113.099 29.4302 113.303 29.5047 113.303 29.2982C113.231 29.2706 113.097 29.0246 113.013 28.9735C112.843 28.8691 112.806 28.9772 112.655 28.7854C112.566 28.6736 112.092 28.37 111.93 28.3995C111.727 28.4363 111.573 28.0844 111.458 28.2394C111.303 28.4501 111.027 28.1645 110.979 27.9478C110.944 27.7956 110.977 27.5656 110.941 27.3641C110.88 27.2961 110.808 26.9378 110.928 26.8936C110.928 26.6926 110.583 26.5211 110.532 26.3146C110.507 26.2147 110.518 26.1154 110.464 26.0229C110.396 25.9024 110.25 25.8045 110.149 25.7125C110.004 25.5805 110.191 25.3487 110.107 25.3027C109.962 25.224 109.706 24.8321 109.622 24.8321C109.499 24.8321 109.326 24.8358 109.273 24.6909C109.192 24.4702 109.014 24.5654 108.847 24.4936L108.426 24.2912C108.227 24.1951 108.224 24.3092 108.051 24.3239C107.801 24.3451 107.56 24.375 107.424 24.7195C107.363 24.8726 106.963 24.788 106.817 24.7572C106.287 24.6436 106.687 24.9991 106.375 25.3123C105.88 25.8081 105.583 25.3454 105.23 25.5616C104.783 25.8348 104.859 25.4678 104.501 25.4678C104.274 25.4678 103.85 25.5855 103.751 25.2512C103.65 25.2512 103.597 25.5556 103.481 25.5805C103.242 25.5805 103.041 25.6099 102.816 25.5524C102.656 25.5115 102.863 25.2456 102.825 25.1334C102.794 25.0456 102.643 24.9931 102.656 24.9545C102.925 24.1822 102.091 24.5686 101.721 24.5686C101.542 24.5686 101.857 23.7844 101.89 23.6653C102.095 22.9201 101.505 23.6225 101.279 23.1193C101.171 22.8783 100.998 22.8194 100.74 22.7431C100.44 22.6538 100.411 22.8305 100.411 23.1101C100.411 23.4399 99.7452 22.9634 99.7963 23.4252C99.8103 23.5526 99.746 23.7292 99.8763 23.8019C99.7988 23.9748 100.092 24.5829 99.7502 24.5829C99.4582 24.5829 99.0769 24.8556 99.0171 25.1992L98.7223 25.19L98.6802 25.637L97.3452 22.451L96.6769 20.8458L96.1661 19.6182L95.7488 18.8179L93.8201 14.9405L92.3375 12.0649L91.6172 11.3217L88.3951 8.26763C88.3049 8.09009 88.203 8.02707 88.2228 7.8109C88.241 7.61174 88.0991 7.59932 88.05 7.43466C87.9626 7.14075 88.3518 7.27459 88.5007 7.27459C88.6343 7.73132 89.1785 6.95309 89.1785 6.69552C89.1785 6.55891 89.2915 6.48947 89.3051 6.357C89.3389 6.024 89.0598 6.19602 89.0441 6.06953C89.1822 6.03182 89.4473 5.90349 89.5281 5.78253C89.4708 5.69652 89.4737 5.66433 89.4787 5.65466C89.4692 5.65926 89.4382 5.66754 89.3513 5.66018C89.2519 5.65189 89.103 5.71078 89.0103 5.75447C88.6693 5.915 88.8808 6.26731 88.4838 6.26731C88.2661 6.26731 88.0905 6.35792 87.8732 6.27697C87.4407 6.11507 87.5895 6.13393 87.3339 6.47429L87.4015 6.6486L85.5862 7.5708L85.3417 7.51469L84.929 7.75937L85.0935 8.13561L84.9797 8.3849C84.64 8.59509 84.1052 9.23857 83.7626 9.18015C83.4653 9.13002 83.0337 8.96305 83.0337 9.52373C82.9034 9.57294 82.8518 9.52557 82.7896 9.73116C82.7137 9.98137 82.7034 9.95241 82.4861 9.92388C82.092 9.67229 82.0784 10.3273 82.2082 10.5641C82.2561 10.6506 81.8739 11.4026 81.7617 10.9072C81.7543 10.9054 81.7341 10.8865 81.7324 10.8792C81.7271 10.8778 81.725 10.876 81.7197 10.8746C81.6875 10.7283 81.7593 10.5977 81.5935 10.531C81.4999 10.4933 81.3812 10.3466 81.3028 10.4698C81.255 10.4593 81.1796 10.6888 81.0794 10.5264C81.0258 10.4386 81.0769 10.2877 80.9994 10.2017C80.9446 10.1401 80.5137 10.1272 80.4646 10.2155C80.39 10.3507 80.3661 10.5811 80.1909 10.3852C80.0359 10.2113 79.5832 10.8732 79.3131 11.1335C79.2488 11.1952 79.1952 11.2343 79.1581 11.2343C79.1338 11.2343 79.1169 11.2177 79.1086 11.1804C79.0913 11.1754 79.0925 11.1501 79.0789 11.1427C79.0789 10.6759 78.613 10.6161 78.6242 10.399C78.6291 10.2978 78.7367 10.2366 78.7 10.1451C78.6254 9.95929 78.6811 9.96848 78.839 9.92386C78.8864 9.70999 79.0711 9.73943 78.9651 9.42989C78.8715 9.1553 79.1787 9.30524 79.2055 9.1852C79.377 9.13782 79.0616 8.80667 79.4075 8.84622C79.612 8.86968 79.739 8.92947 79.9382 8.87933C79.9382 8.71927 80.0058 8.53254 80.0478 8.38029C80.066 8.3136 80.1736 7.87803 80.1447 7.86745V7.8578C80.1422 7.85734 80.12 7.84629 80.1192 7.84399C80.1113 7.84399 80.1088 7.84676 80.1068 7.83894C79.9682 7.83894 79.9299 7.78328 79.791 7.83434C79.791 7.91575 79.7411 8.27128 79.5844 8.14019C79.4368 8.263 79.4801 8.56657 79.2137 8.35223C79.0971 8.25794 78.9136 8.46124 78.7293 8.43226C78.385 8.37799 77.9488 8.05005 77.887 7.71199C77.8709 7.62368 77.3663 7.48156 77.2553 7.48156C76.9515 7.48156 76.5982 7.26492 76.5982 7.82513C76.8002 7.89965 77.1246 8.01188 77.1246 8.34258L77.0908 8.38029C76.7264 8.38029 76.4942 8.0712 76.3203 8.65809C75.8263 8.65809 76.3289 7.93874 76.2613 7.81088C76.2246 7.74188 76.0131 7.62781 76.1475 7.56158C76.2671 7.50271 76.3846 7.49627 76.5013 7.45303C76.5013 7.33345 76.11 7.21616 76.0172 7.15223C75.802 7.00367 76.103 6.79117 75.8696 6.70516C75.8696 6.51474 75.6993 6.31099 75.5538 6.22958C75.2466 6.05756 75.2091 5.93751 75.1493 6.3142C75.1774 6.3694 75.3353 6.47795 75.3769 6.49312C75.3769 6.89788 75.0826 6.65457 75.4441 7.05794C75.7797 7.43234 75.2965 7.41946 75.2883 7.34035C75.259 7.05334 75.2751 7.19914 75.1114 7.01562C74.9077 6.78748 74.8855 6.75529 74.568 6.77553C74.2444 6.79623 74.084 6.85878 74.2188 7.31182C74.3248 7.67012 73.6717 7.55697 73.4985 7.55697C73.4973 7.55329 73.473 7.53444 73.4688 7.53306C73.4086 7.19776 73.4062 7.14716 73.0269 7.14716C72.8364 7.14716 72.7263 7.61032 72.5086 7.52846V7.51926C72.4364 7.49259 72.4101 7.38128 72.4035 7.28837C72.3894 7.10118 72.2938 7.13843 72.2348 7.01102C72.2489 6.88638 72.3391 6.66607 72.2179 6.61087C72.1013 6.55798 71.9326 6.58603 72.079 6.34732C72.194 6.16013 72.5676 6.41309 72.6306 6.33305C72.7403 6.19461 72.6339 5.93014 72.6983 5.83447C72.4463 5.4587 72.4859 4.70852 72.9131 4.54984C72.9131 4.43531 72.6294 4.16624 72.5383 4.15888C72.1829 4.13129 72.2571 4.08759 72.1718 3.74493C72.1078 3.48736 72.1128 3.43585 71.9569 3.21783C71.8399 3.05409 72.2439 1.99253 72.058 1.90008C71.8865 1.81499 71.9252 1.70231 71.797 1.57536C71.6589 1.43875 71.5125 1.12001 71.5232 0.921313C71.5385 0.639826 70.8763 1.02067 70.8701 1.02021C70.7312 1.00595 70.5762 0.796669 70.4364 0.8744C70.2476 0.979727 70.382 1.22488 70.1713 1.33067C70.0653 1.38402 69.6819 1.64343 69.6869 1.62273C69.6357 1.60847 69.6234 1.55696 69.5562 1.5427C69.3508 1.51741 69.2626 1.20557 69.0676 1.28376C68.8899 1.35505 68.7604 0.923161 68.6928 0.752056C68.4879 0.233236 67.5668 0.740086 67.383 0.328434C67.2696 0.0740838 66.929 0.822878 66.7134 0.413066C66.5786 0.157331 65.9803 -0.256614 65.9803 0.215755C65.9803 0.444349 65.8826 0.455841 66.1659 0.558869C66.1659 1.05745 66.0607 0.650402 65.8459 0.610847C65.5033 0.547834 65.6121 0.22679 65.3194 0.65776C65.2864 0.844038 65.1619 0.838525 65.0918 0.977884C65.0308 1.09931 65.2609 1.14668 65.1549 1.26489C65.1372 1.28467 64.6041 1.30767 64.5571 1.28834C64.529 1.2773 64.3806 1.26213 64.3926 1.31686C64.1489 1.47232 64.3645 1.32423 64.0937 1.34952L63.7948 1.37804C63.7948 1.43461 63.8516 1.54362 63.8871 1.5565C63.8871 1.72576 63.7762 1.61629 63.8916 1.8251C63.93 1.89501 63.9865 2.03944 64.0557 2.06474C64.0557 2.16133 63.9473 2.27355 63.8747 2.30023C63.8747 2.43315 64.0174 2.62955 63.8199 2.67187L63.3396 2.77536C63.0192 2.84481 62.9405 2.2133 62.6741 2.80847C62.5443 3.09915 62.5203 3.19345 62.228 3.28866C61.9378 3.36823 61.1903 3.10927 61.1202 3.4248C61.0435 3.76976 59.946 3.60739 59.6417 3.88152C59.4298 4.07286 58.7161 4.08988 58.3657 4.2389C58.0898 4.35665 57.8536 4.51533 57.6738 4.58525C57.4351 4.67816 57.2962 4.61514 57.2962 4.0931C57.2883 4.09126 57.2896 4.09264 57.2879 4.0839C56.6526 4.0839 57.0071 4.91825 56.378 4.59674C56.2258 4.57605 56.0011 4.42242 55.9022 4.42242C55.8519 4.59169 55.9706 5.013 55.8136 4.93573C55.6899 4.87456 55.2895 4.88329 55.1778 4.98264C54.97 5.16708 55.0421 6.21897 54.7902 6.29072C54.5062 6.37213 54.5008 5.82986 54.1627 5.82986C53.6053 5.82986 53.2173 6.12468 52.7432 6.28612C52.629 6.32522 52.5111 6.24059 52.3474 6.30039C52.0501 6.40847 51.8444 6.36937 51.5851 6.4793C51.1748 6.65224 51.5991 6.87578 51.341 7.0202C51.0639 7.17521 51.0573 6.52714 50.7765 6.61545C50.4653 6.68537 50.1614 6.95443 49.8415 7.04872C49.6613 7.10161 49.0507 6.95811 48.9484 7.18487C48.8845 7.32745 49.0548 7.59467 48.7464 7.59467C48.443 7.59467 48.2059 7.47003 47.9 7.57582C47.2877 7.78648 47.4514 7.64527 47.3145 8.24366C47.1888 8.79146 46.9241 8.71004 46.7121 8.23906C46.6491 8.09923 46.9521 8.05002 46.9521 7.99897C46.5584 7.85362 46.2137 8.05968 45.7981 7.89548C45.4856 8.0468 45.655 8.04773 45.655 8.30989C45.655 8.41017 45.6394 8.46995 45.533 8.46995C45.46 8.46995 45.1739 8.37014 45.1916 8.26758C45.2081 8.17145 45.2959 8.03208 45.1326 8.03208C45.0139 8.03208 44.8717 8.26206 44.7999 8.18249C44.8473 8.05186 44.6857 8.00954 44.602 8.02288C44.4635 8.0445 44.4585 8.13557 44.3703 8.24366C44.2878 8.34577 44.0335 7.99299 44.0335 7.9378C44.0335 7.71243 44.0784 7.60157 43.8104 7.6793C43.6067 7.73818 43.4975 7.91388 43.3301 7.97551C43.3301 8.17144 43.6224 8.49295 43.3173 8.58724C43.0349 8.67463 43.2072 8.15857 42.9005 8.27217C42.7937 8.31173 42.5278 8.42994 42.5426 8.57343C42.557 8.71648 42.6869 8.60472 42.7405 8.63461C42.959 8.75558 43.0584 8.56976 43.1614 8.89816C43.4216 9.23024 43.3346 9.3121 43.0691 9.6083C43.0501 9.62946 42.9351 9.68696 42.9215 9.64143C42.7298 9.69432 42.8827 9.98684 42.7487 10.0696C42.6354 10.1396 42.4869 9.86313 42.3616 10.0039C42.1229 10.2711 42.8427 10.2366 42.8922 10.2582C43.0613 10.3304 43.0988 10.6032 43.3173 10.6202C43.6579 10.6469 43.7399 10.3065 44.0796 10.404C44.5484 10.5379 44.3748 10.9192 44.0462 11.1238C43.7828 11.2876 43.7704 11.0797 43.629 10.9215C43.4373 10.7067 43.3214 11.3009 43.1829 11.3966C43.0761 11.4702 43.1569 11.6873 43.1742 11.811C43.1742 12.3192 43.7457 12.0465 44.0207 12.3192C44.4573 12.7511 44.5167 12.0125 44.8168 12.4085C44.964 12.6026 45.0663 12.7842 45.2844 12.8652C45.5074 12.9475 45.9684 12.9089 46.0129 13.2368C46.0636 13.6108 45.6105 14.2556 45.3644 13.8582C45.2295 13.6397 45.0448 13.6931 44.8255 13.6558C44.4194 13.5868 44.7253 14.0243 44.24 13.6039C43.932 13.3376 43.6335 13.889 43.4901 13.6273C43.3948 13.4539 43.3181 13.4838 43.1784 13.6273C43.0629 13.7464 42.926 13.9585 42.7488 13.8108C42.745 13.8141 42.7203 13.8177 42.7108 13.8205C42.7108 14.1737 43.011 14.073 42.5595 14.3614C42.4317 14.5891 42.2932 14.5826 42.1971 14.8604C42.127 15.0637 41.9831 14.9055 41.8475 14.9731C41.6768 15.0587 41.7902 15.6414 42.054 15.6414C42.2981 15.6414 42.1188 16.0324 42.172 16.1971C42.1843 16.2357 42.2598 16.209 42.2647 16.2251C42.3092 16.2251 42.5352 16.289 42.5426 16.3143C42.5546 16.3143 42.5599 16.3194 42.5719 16.3194C42.6061 16.4339 42.7982 17.1915 42.7743 17.2885C42.7141 17.5309 42.2396 17.84 42.0161 17.8722L41.7634 18.2158L41.1441 18.2249L40.3397 19.0579L39.7332 19.0722C39.6549 19.2626 39.9043 19.5008 39.9732 19.6416C40.1084 19.9162 40.2416 19.5698 40.2684 19.6227C40.3801 19.8449 40.9697 19.9879 41.1779 20.1167C41.4805 20.3039 41.1519 20.1871 41.0307 20.4088C40.9376 20.5785 40.71 20.5868 40.8493 20.7804C41.1903 21.2532 42.0103 20.9478 42.475 21.1194C42.4284 21.331 42.3591 21.4924 42.5298 21.6837C42.5999 21.7389 42.6214 21.8544 42.7067 21.8861C42.8127 21.9257 42.9397 21.8608 43.0225 21.9662C43.1322 22.1051 43.3919 21.9832 43.549 22.0462C43.655 22.089 43.6913 22.1432 43.8187 22.112C43.9028 22.0917 44.0623 22.065 44.1304 22.1405L44.1596 22.2674L44.3031 22.6579L44.6189 22.9826L44.3283 23.11L43.9956 25.3219L42.1382 26.1172L40.6638 25.9994L40.1967 25.3923L40.2556 25.1527L39.8384 25.0772L39.6871 25.4723C39.6673 25.6471 39.7411 25.7883 39.7164 25.9571C39.7048 26.0362 39.4455 26.1981 39.3836 26.2726C39.1515 26.5509 39.1705 26.8586 38.7689 26.6866C38.698 26.6562 38.3302 26.7813 38.3096 26.8512C38.2659 26.8388 38.2791 26.7708 38.2676 26.7289C38.2478 26.6581 38.1768 26.648 38.12 26.6112C38.2082 26.481 38.5388 26.4778 38.3434 26.343C38.1966 26.2418 38.0136 26.1314 37.8169 26.1314C37.4924 26.1314 36.8958 26.0243 36.5701 25.8628C36.2877 25.7235 36.2077 25.2906 35.9554 25.3077C35.6487 25.3284 35.8886 25.1058 35.8499 24.9314C35.6421 24.9314 35.6227 25.0575 35.5551 24.7852C35.5254 24.666 35.5674 24.4844 35.6268 24.4181C35.9406 24.0681 35.0949 23.9196 34.9906 23.8726L34.8612 23.3777C34.7816 23.4665 34.7214 23.5714 34.6117 23.5714C34.507 23.5714 34.439 23.7438 34.4097 23.8299C34.3503 24.0046 34.1817 24.121 34.098 23.891C33.9537 23.4955 33.9178 23.8142 33.6177 23.7126C33.421 23.6459 33.4363 23.6652 33.2681 23.5806C33.2351 23.564 33.1984 23.5631 33.1576 23.5704L33.1209 24.6771L32.7754 24.6536C32.3812 24.3248 32.3915 25.4613 31.8279 24.517C31.5723 24.0893 31.6807 23.8487 31.1328 23.9007L30.4884 23.9619C30.4195 23.9683 30.1169 23.8059 30.0798 23.8584C29.9338 24.064 30.2381 24.2342 30.1684 24.3758C29.9528 24.8137 29.4844 23.6243 29.2502 24.0511C29.2045 24.1343 29.3014 24.2452 29.2923 24.3524C29.2816 24.4853 29.0899 24.5046 29.1072 24.5547C29.2882 25.0814 28.5836 24.6771 28.5007 24.6771C28.5007 24.9806 28.3803 25.5965 28.2059 25.717C27.8398 25.9695 27.6674 26.2335 27.2622 26.423C26.8639 26.8678 27.0948 26.5339 26.7105 26.3665C26.661 26.3448 26.3654 25.6954 26.205 26.0514C26.1523 26.1687 25.8393 25.8145 25.7882 25.7501C25.6546 25.5827 25.1046 25.327 25.2914 25.1007C25.7676 24.5239 24.9562 24.8376 24.8659 24.7479L24.4911 24.3758C24.2652 24.1523 24.2009 24.1757 23.9226 24.15C23.7564 24.1348 23.7131 24.6035 23.7667 24.6628C23.864 24.7723 23.9902 24.7203 24.0867 24.7806C24.0961 24.7865 24.3114 27.1102 23.7581 26.6489C23.7259 26.756 23.6653 26.7436 23.6035 26.6921C23.542 26.641 23.4794 26.5509 23.4422 26.5026C23.2518 26.2547 23.3313 26.263 23.3495 25.9709C23.3664 25.7028 23.6806 25.132 23.5433 25.0956C23.3157 25.0354 23.2794 24.8716 23.0044 24.8463C22.8733 24.8344 22.9413 24.6279 22.7686 24.5731L22.6296 24.3896C22.6461 24.3588 22.6399 24.2907 22.6589 24.2627C22.5294 24.0681 22.5575 23.8901 22.402 23.7167C22.2318 23.5268 22.0194 23.3616 21.7914 23.3124C21.3511 23.2167 20.9701 23.099 20.9701 22.4979C20.9701 21.9731 20.4576 22.0917 20.3929 21.8912C20.3105 21.635 20.1154 21.7679 19.934 21.6603L19.6508 21.5458C19.5506 21.5885 19.4343 21.6318 19.2896 21.6699C18.9989 21.7463 18.6456 21.6138 18.4139 21.6699C18.2894 21.6998 18.195 21.7688 18.0997 21.8392C17.9987 21.9105 17.795 21.8999 17.7439 21.7592C17.6854 21.5996 17.6231 21.4105 17.5753 21.2367C17.544 21.1235 17.4462 21.0072 17.4363 20.8936L17.2933 20.2722C17.2578 20.1186 17.0203 20.6466 16.7709 20.5077C16.6592 20.4451 16.6678 20.7142 16.6151 20.7616C16.1483 21.181 15.9488 20.3012 15.5452 21.3121C15.4895 21.4515 15.6713 21.5784 15.6 21.7077C15.5348 21.8254 15.2532 21.7914 15.2124 21.9284C15.0958 21.8314 15.2899 21.4036 15.0821 21.4768C14.8978 21.5416 14.7898 21.7504 14.5639 21.8157C14.251 21.9059 13.8065 21.4234 14.1302 21.2933C14.1829 21.2721 14.333 21.2684 14.3578 21.2132C14.4711 20.9589 14.2085 20.8871 14.0795 20.7427C13.9438 20.5909 13.1246 20.9198 12.9679 20.6769C12.7881 20.3982 12.9761 20.3591 12.6014 20.2533C12.6014 20.4681 12.6269 20.7772 12.7317 20.9497C12.6805 21.0463 12.6154 21.5205 12.4076 21.2132C12.4294 21.181 12.5037 21.0352 12.4793 20.992C12.4492 20.9396 12.3227 21.0651 12.2728 20.997C12.173 20.86 12.0419 21.0417 11.9528 21.1709C11.9005 21.2468 11.9561 22.226 11.6663 22.0273C11.3715 21.8254 11.6345 22.324 11.3463 22.324C11.3167 22.4578 11.5335 22.4882 11.3167 22.6625C11.1847 22.7688 10.9926 22.8492 10.8368 22.9026C10.4533 23.0346 10.0897 23.1708 9.82168 23.5429C9.383 24.1509 8.71962 23.3409 8.53697 24.0654C8.4978 24.2875 8.43431 24.517 8.67591 24.6062C8.67591 25.3587 8.23311 25.0777 7.82535 25.4061C7.67156 25.5303 7.03787 26.6342 6.80616 26.3757C6.70845 26.2671 6.60744 26.3964 6.51549 26.3568C6.41324 26.3131 6.36129 26.0933 6.26275 26.0933C6.26193 26.0956 6.24502 26.1204 6.24173 26.1218C6.24173 26.2151 6.24008 26.3628 6.32583 26.3945L6.33862 26.6112C6.3782 27.0173 6.54395 27.4207 6.59548 27.83C6.62764 28.0862 6.86265 28.6749 6.69649 28.8603C6.60661 28.9606 7.04612 29.0199 7.03746 29.1712C7.2333 30.058 5.88675 29.8446 5.71936 30.4085C5.65009 30.4085 5.6204 30.3146 5.56351 30.2861C5.51032 30.2599 5.44806 30.362 5.41632 30.2627C5.35035 30.0585 5.21513 30.2484 5.12978 30.1403C5.08401 30.0828 5.02794 29.8611 4.99496 29.7733C4.83704 29.5962 4.80571 29.4688 4.7884 29.237C4.77768 29.0907 4.56452 28.8916 4.48948 28.7379C4.32539 28.4026 4.1782 27.8889 3.84094 27.7638C3.71066 27.7155 3.48514 27.3783 3.41545 27.2463C3.20807 26.8517 2.83452 27.451 2.7331 27.6322C2.6259 27.8245 2.47336 27.744 2.39213 27.9473C2.35421 28.042 2.59415 28.4183 2.35008 28.4183C2.34802 28.4252 2.30761 28.4716 2.29978 28.4841L2.55251 28.9923L2.07219 29.7921L1.18741 30.1592L0.825415 32.7662C1.07527 33.0113 1.60877 33.3549 1.60877 33.7546C1.60877 34.2122 1.16886 34.6552 0.825828 34.8368L0 37.3031L0.399924 37.5478L0.589583 37.5427L0.732659 37.7124L1.82772 38.131L1.777 38.3196L1.86977 38.71L1.79844 38.9405L2.1056 39.044L2.09323 39.1617L1.96336 39.1571L1.92089 39.2983L1.68506 39.4584L2.01366 40.1639L1.86235 40.2771L2.09818 40.6441L2.62881 41.03L2.72117 40.6818L2.71292 40.2674L3.42042 40.6441L4.29654 40.6818L4.54927 40.6345L5.05475 41.0392L5.30748 41.5194L5.69463 42.2723L5.98942 42.2815L6.46975 43.637L7.169 44.9078L7.42173 45.4345L7.17723 45.7831L6.73072 45.83C6.47675 45.83 6.49901 45.5196 6.31389 45.4395C6.09867 45.3462 5.98654 45.7077 5.93912 45.8627C5.91149 45.9524 6.06899 46.1313 6.14114 46.1313C6.15021 46.1621 6.19391 46.1685 6.15393 46.2251C6.13867 46.2467 6.05621 46.3415 6.06528 46.3617C6.09579 46.4298 6.31678 46.3948 6.3811 46.3948C6.579 46.3948 6.78391 46.4905 6.84864 46.7145L7.11828 47.0443C7.28155 47.0802 7.44895 47.2522 7.57758 47.2982C7.77342 47.3681 8.18448 47.3239 8.28054 47.5617C8.36918 47.7807 8.56049 47.7738 8.65573 47.9899C8.67346 48.0309 8.65903 48.0805 8.65903 48.1261V48.1311C8.70768 48.1711 8.9901 48.3427 9.03834 48.3427C9.05359 48.3942 9.18512 47.9738 9.18965 47.9568C9.20161 47.9568 9.2115 47.9504 9.21934 47.9568C9.30509 47.9881 9.557 48.0543 9.61102 48.1031C9.86417 48.3312 9.88066 48.2585 9.95652 47.9196L10.0365 47.5617C10.067 47.4256 9.96476 47.3745 9.96476 47.2655C10.2641 47.1524 10.1037 46.847 10.1037 46.6584C10.1037 46.1603 10.4608 46.5876 10.5502 46.1828C10.6084 46.0278 10.7576 45.7205 10.8702 45.6419C10.9217 45.6056 10.9036 46.0209 10.925 46.0839C11.0338 46.3999 11.2594 45.5987 11.2787 45.5334C11.3427 45.3181 11.6061 45.5637 11.6873 45.1948C11.7661 45.1948 11.7434 45.2036 11.7632 45.2937C11.9285 45.2937 11.83 45.6635 12.0411 45.3733C12.0939 45.3006 12.1776 44.8246 12.319 44.8651C12.3598 44.877 12.3375 45.0132 12.3656 45.0582C12.4068 45.1249 12.6513 44.8255 12.7065 44.7758C12.9675 44.5417 13.1535 44.7754 13.4017 44.8747C13.6552 44.9764 14.2139 44.4474 14.5936 44.6581C14.7655 44.7537 14.9247 44.7137 14.8294 44.9547C14.6765 45.3402 14.8979 45.1194 15.0945 45.1194C15.4763 45.1608 15.2961 45.4726 15.4908 45.6368C15.5885 45.302 15.7822 45.3213 16.0383 45.3029C16.3207 45.2827 16.7713 45.7716 17.0488 45.5568C17.2863 45.3733 17.3312 45.1295 17.6932 45.331C17.9134 45.4542 17.8812 45.5384 18.1905 45.5384C18.4902 45.5384 18.2911 46.1501 18.6873 46.0278C19.0538 45.9142 19.3057 46.0549 19.121 46.531C19.0381 46.6418 19.1507 46.8506 19.1507 46.978C19.1507 47.0286 19.1103 47.1298 19.0592 47.2402C19.008 47.3511 18.9462 47.4706 18.9037 47.5594C18.8868 47.5939 18.8732 47.6238 18.8642 47.6463C18.7928 47.8253 18.6547 47.8575 18.6366 48.1031C18.6304 48.1891 18.6081 48.3634 18.6283 48.4513C18.6803 48.6785 18.4902 48.6099 18.4218 48.8091C18.3587 48.9931 18.1447 48.9163 18.2156 49.2373C18.5141 49.2373 18.5261 49.0869 18.8514 49.27C18.8922 49.293 19.0629 49.4231 19.0703 49.3219C19.0818 49.1683 19.0134 49.161 19.1297 49.0961C19.1317 49.1007 19.4451 49.0432 19.3696 49.1476C19.3424 49.1849 19.1338 49.6669 19.1462 49.7028C19.2723 50.0689 19.0851 49.8959 19.0369 50.1687C18.8959 50.3564 19.1313 50.7381 19.0241 50.9782C18.9911 51.0527 18.8365 51.1231 18.78 51.044C18.7025 50.9359 18.7347 50.848 18.7001 50.7289C18.6757 50.7468 18.5842 50.6843 18.5776 50.6631C18.5471 50.6857 18.3294 50.8287 18.3294 50.8747C18.3294 50.9465 18.4914 51.5094 18.3756 51.5476C18.2436 51.5913 18.2515 51.4427 18.1777 51.3406C18.1468 51.2979 17.9959 51.1981 17.9418 51.1525C17.9163 51.2404 17.5745 51.4165 17.6091 51.5242C17.6289 51.5862 17.7357 51.8346 17.6302 51.8346C17.5621 51.8346 17.3857 51.801 17.3312 51.7642C17.2727 51.7771 16.8983 51.9105 16.8468 51.8677C16.7239 51.9703 15.5472 51.7854 15.499 51.623C15.4908 51.623 15.1824 52.0752 15.0146 52.1359C14.8129 52.209 14.5169 52.0089 14.4757 52.0844C14.3974 52.226 14.3025 52.404 14.1974 52.531C13.9863 52.7872 13.9447 52.8465 13.9447 53.2135C14.1116 53.4463 13.5266 53.6992 13.4058 53.7972C13.1349 54.0161 13.2401 54.4844 12.9003 54.4844L12.8962 54.489C12.8962 54.7429 13.3691 54.4936 13.5447 54.7663C13.6185 54.8808 13.6911 54.8358 13.7806 54.8749C14.1821 55.0487 13.7703 55.7051 14.3957 55.6559C14.533 55.6453 15.2096 55.873 14.9177 56.0372C14.8583 56.0707 14.5928 56.0877 14.568 56.004C14.5602 56.004 14.5577 56.0073 14.5557 55.9994C14.4147 55.9994 14.326 56.1287 14.286 55.9005C14.1071 55.8513 14.1063 55.9705 13.9447 56.0606C13.8094 56.1365 13.6486 56.0836 13.553 56.1406C13.3295 56.0339 13.3472 55.8578 13.111 55.7501C12.9296 55.6674 12.8401 55.3652 12.6352 55.4866C12.4155 55.6168 12.3973 55.5468 12.18 55.5147C11.9586 55.4825 11.6927 55.4723 11.4812 55.4112C11.1468 55.315 11.2186 55.849 11.0219 55.849C11.0219 55.9364 11.0322 56.0716 11.0516 56.1641C11.1287 56.6093 11.0619 56.797 11.5146 56.917C11.9628 57.0362 12.5684 56.998 12.8162 57.5007C12.9329 57.738 12.843 58.0135 12.9213 58.2302C12.9502 58.3097 13.0995 58.2973 13.17 58.3852C13.2602 58.4983 13.2594 58.6515 13.2751 58.795C13.3679 59.1515 13.4305 59.4086 13.6037 59.736C13.6528 59.8285 13.6985 60.0838 13.7595 60.1311C13.7896 60.1546 14.0011 60.2066 14.0036 60.2158H14.0123C14.0448 60.3275 14.2733 60.5575 14.2733 60.7194C14.2333 60.7346 14.1013 61.6729 14.1471 61.7409C14.1232 61.7754 14.0749 62.0684 14.0712 62.1172C14.0589 62.2855 14.5198 62.1112 14.6484 62.0891C14.8632 62.0519 15.0673 62.0505 15.238 62.1126C15.238 62.1968 15.2125 62.2611 15.2125 62.3476C15.2153 62.4447 15.6083 62.9239 15.6887 63.0582C15.7703 63.1953 15.847 63.5665 15.9624 63.5665C16.4728 63.5665 16.5837 63.1493 16.9899 63.7362C17.0163 63.7744 17.5753 63.4193 17.8198 63.6608C18.1105 63.9482 18.4218 63.9928 18.4218 64.4937C18.4218 65.1772 18.0041 64.181 17.8577 64.1267C17.8577 64.3677 18.2239 64.6722 18.2239 64.9735C18.2239 65.4224 17.993 65.6836 17.8701 66.0939C17.5807 66.34 17.3576 66.5902 17.5164 66.988C17.5498 67.0713 17.4846 67.172 17.5164 67.27C17.5728 67.4452 17.6635 67.4098 17.6512 67.637C17.6479 67.6991 17.6561 68.0142 17.5922 68.0372C17.5922 68.1632 17.5357 68.2239 17.5357 68.2855C17.5357 68.2961 17.5374 68.3071 17.5415 68.3182L19.0707 66.7856L20.9578 65.9807L22.7265 65.6703L24.4363 67.1476L24.8408 67.7124L24.8659 68.108L25.2955 68.8421L26.0368 70.1221C26.1263 70.2863 26.3687 70.6446 26.5506 70.6161C26.5679 70.5186 26.6635 70.4891 26.7274 70.4891C26.7868 70.6892 27.1282 70.3728 27.275 70.4183C27.4551 70.4749 27.3978 70.4201 27.5446 70.3479C27.6312 70.3052 27.7417 70.3001 27.8476 70.3001C27.8806 70.3001 27.9132 70.3006 27.9445 70.3006L27.9499 53.7397L30.0044 53.0066L35.6495 50.992C35.6775 50.8669 35.7043 50.7468 35.7319 50.6397C35.7171 50.5578 35.9039 49.9162 35.9637 49.849C36.0193 49.7879 36.0878 49.8417 36.1533 49.7593C36.3121 49.5606 36.3104 49.3983 36.5747 49.4204C36.7784 49.4378 36.9561 49.2465 37.1177 49.3026C37.2805 49.3592 37.3634 49.3514 37.497 49.2134C37.8936 48.8031 37.5155 49.5919 37.4422 49.7308C37.2719 50.0523 37.1181 49.6664 37.0377 49.9005C37.008 49.987 37.0175 50.0997 36.9746 50.1779C36.9276 50.2639 36.8344 49.9599 36.7091 50.1544C36.5862 50.3462 36.7008 50.6512 36.545 50.8651C36.4254 51.0293 36.2865 51.1562 36.1236 51.2698C36.1051 51.2841 36.0882 51.3025 36.0737 51.3236L38.1777 52.7035C38.1868 52.6193 38.1851 52.5439 38.1496 52.4887C37.9818 52.2283 38.3904 52.0972 38.4655 51.9284C38.5112 51.8263 38.477 51.5246 38.3306 51.538C38.1661 51.5531 38.1872 52.0913 38.0404 52.0747C37.8561 52.0536 37.9056 51.4147 37.9728 51.2979C37.9629 51.2381 37.939 51.1525 37.939 51.0959C37.9365 51.095 37.908 51.078 37.901 51.072C37.8441 51.1194 37.7518 51.0325 37.7369 50.9731C37.7217 50.9124 37.9229 50.4842 37.96 50.5077C38.1888 50.6484 38.1562 50.5445 38.3137 50.3568C38.4762 50.1641 38.496 50.1604 38.5962 50.343C38.6543 50.4488 38.7611 50.2515 38.8023 50.4465C38.8534 50.6866 38.6683 50.9368 38.8741 51.1663C39.0983 51.4165 39.5312 51.101 39.5312 51.6088C39.5312 51.8015 39.5733 51.9832 39.5733 52.1736C39.5733 52.3806 39.4723 52.5494 39.4723 52.7711C39.5329 52.9518 39.5824 53.116 39.6178 53.2743C39.6533 53.4329 39.6747 53.5861 39.6793 53.7448L42.9591 56.6866L43.0691 57.3406L45.5879 60.5971L47.0449 60.5028L49.336 59.9099L51.4334 60.2204L53.017 60.3055L54.1797 59.5521L54.4155 59.6086L54.9461 60.6628L55.9822 61.4438L56.8497 63.4864L57.6582 63.1194L57.6062 65.4818Z" stroke="#FFB800" stroke-width="6" mask="url(#path-1-inside-1_108_21)"/>
<path d="M18.8366 50.4416C18.8366 50.3869 18.8448 50.3308 18.8448 50.277C18.8366 50.2738 18.8287 50.2627 18.8151 50.2627C18.8114 50.2503 18.7393 50.2393 18.7228 50.2347C18.6428 50.2117 18.5677 50.271 18.5249 50.3381C18.496 50.3823 18.5401 50.46 18.5838 50.4697C18.5867 50.4826 18.6815 50.6219 18.6931 50.6298C18.8073 50.7079 18.8106 50.6702 18.891 50.5543L18.8366 50.4416Z" fill="#00AFCA"/>
<path d="M18.8366 50.4416C18.8366 50.3869 18.8448 50.3308 18.8448 50.277C18.8366 50.2738 18.8287 50.2627 18.8151 50.2627C18.8114 50.2503 18.7393 50.2393 18.7228 50.2347C18.6428 50.2117 18.5677 50.271 18.5249 50.3381C18.496 50.3823 18.5401 50.46 18.5838 50.4697C18.5867 50.4826 18.6815 50.6219 18.6931 50.6298C18.8073 50.7079 18.8106 50.6702 18.891 50.5543L18.8366 50.4416Z" stroke="black" stroke-width="0.0109945"/>
</svg>
