<svg width="53" height="43" viewBox="0 0 53 43" fill="none" xmlns="http://www.w3.org/2000/svg">
<path d="M2.40039 13.0666V7.73324C2.40039 6.31875 2.96229 4.96219 3.96249 3.962C4.96268 2.96181 6.31924 2.3999 7.73372 2.3999H45.0671C46.4815 2.3999 47.8381 2.96181 48.8383 3.962C49.8385 4.96219 50.4004 6.31875 50.4004 7.73324V13.0666C48.2787 13.0666 46.2438 13.9094 44.7435 15.4097C43.2432 16.91 42.4004 18.9448 42.4004 21.0666C42.4004 23.1883 43.2432 25.2231 44.7435 26.7234C46.2438 28.2237 48.2787 29.0666 50.4004 29.0666V34.3999C50.4004 35.8144 49.8385 37.1709 48.8383 38.1711C47.8381 39.1713 46.4815 39.7332 45.0671 39.7332H7.73372C6.31924 39.7332 4.96268 39.1713 3.96249 38.1711C2.96229 37.1709 2.40039 35.8144 2.40039 34.3999V29.0666C4.52212 29.0666 6.55695 28.2237 8.05724 26.7234C9.55754 25.2231 10.4004 23.1883 10.4004 21.0666C10.4004 18.9448 9.55754 16.91 8.05724 15.4097C6.55695 13.9094 4.52212 13.0666 2.40039 13.0666Z" stroke="black" stroke-width="4.8" stroke-linecap="round" stroke-linejoin="round"/>
<path d="M29.0664 2.3999V39.7332" stroke="black" stroke-width="4.8" stroke-linecap="round" stroke-linejoin="round"/>
</svg>
